<?xml version="1.0" encoding="UTF-8" standalone="no"?>
<svg
   xmlns:dc="http://purl.org/dc/elements/1.1/"
   xmlns:cc="http://creativecommons.org/ns#"
   xmlns:rdf="http://www.w3.org/1999/02/22-rdf-syntax-ns#"
   xmlns:svg="http://www.w3.org/2000/svg"
   xmlns="http://www.w3.org/2000/svg"
   xmlns:sodipodi="http://sodipodi.sourceforge.net/DTD/sodipodi-0.dtd"
   xmlns:inkscape="http://www.inkscape.org/namespaces/inkscape"
   version="1.1"
   viewBox="0.0 0.0 2244.782152230971 513.4514435695538"
   fill="none"
   stroke="none"
   stroke-linecap="square"
   stroke-miterlimit="10"
   id="svg117"
   sodipodi:docname="pyenv_versions.svg"
   inkscape:version="0.92.3 (2405546, 2018-03-11)">
  <metadata
     id="metadata123">
    <rdf:RDF>
      <cc:Work
         rdf:about="">
        <dc:format>image/svg+xml</dc:format>
        <dc:type
           rdf:resource="http://purl.org/dc/dcmitype/StillImage" />
        <dc:title></dc:title>
      </cc:Work>
    </rdf:RDF>
  </metadata>
  <defs
     id="defs121" />
  <sodipodi:namedview
     pagecolor="#ffffff"
     bordercolor="#666666"
     borderopacity="1"
     objecttolerance="10"
     gridtolerance="10"
     guidetolerance="10"
     inkscape:pageopacity="0"
     inkscape:pageshadow="2"
     inkscape:window-width="1841"
     inkscape:window-height="1167"
     id="namedview119"
     showgrid="false"
     inkscape:zoom="0.44226024"
     inkscape:cx="1323.0893"
     inkscape:cy="121.35937"
     inkscape:window-x="0"
     inkscape:window-y="205"
     inkscape:window-maximized="0"
     inkscape:current-layer="g115" />
  <clipPath
     id="p.0">
    <path
       d="m0 0l2244.7822 0l0 513.4514l-2244.7822 0l0 -513.4514z"
       clip-rule="nonzero"
       id="path2" />
  </clipPath>
  <g
     clip-path="url(#p.0)"
     id="g115">
    <path
       fill="#000000"
       fill-opacity="0.0"
       d="m0 0l2244.7822 0l0 513.4514l-2244.7822 0z"
       fill-rule="evenodd"
       id="path5" />
    <path
       fill="#cfe2f3"
       d="m343.5538 35.58046l0 0c0 -11.196676 9.076691 -20.273373 20.273376 -20.273373l249.68948 0c5.376831 0 10.533447 2.1359386 14.335449 5.937933c3.802002 3.8019943 5.9379272 8.958605 5.9379272 14.33544l0 81.09105c0 11.196678 -9.076721 20.273376 -20.273376 20.273376l-249.68948 0c-11.196686 0 -20.273376 -9.076698 -20.273376 -20.273376z"
       fill-rule="evenodd"
       id="path7" />
    <path
       stroke="#000000"
       stroke-width="3.0"
       stroke-linejoin="round"
       stroke-linecap="butt"
       d="m343.5538 35.58046l0 0c0 -11.196676 9.076691 -20.273373 20.273376 -20.273373l249.68948 0c5.376831 0 10.533447 2.1359386 14.335449 5.937933c3.802002 3.8019943 5.9379272 8.958605 5.9379272 14.33544l0 81.09105c0 11.196678 -9.076721 20.273376 -20.273376 20.273376l-249.68948 0c-11.196686 0 -20.273376 -9.076698 -20.273376 -20.273376z"
       fill-rule="evenodd"
       id="path9" />
    <path
       fill="#000000"
       d="m434.62473 68.125984l0 -23.859379l7.734375 0q4.390625 0 5.734375 0.359375q2.046875 0.53125 3.421875 2.34375q1.390625 1.796875 1.390625 4.640625q0 2.1875 -0.796875 3.6875q-0.796875 1.5 -2.03125 2.359375q-1.234375 0.84375 -2.5 1.125q-1.71875 0.34375 -5.0 0.34375l-3.140625 0l0 9.000004l-4.8125 0zm4.8125 -19.828129l0 6.78125l2.640625 0q2.84375 0 3.796875 -0.375q0.96875 -0.375 1.515625 -1.171875q0.546875 -0.796875 0.546875 -1.859375q0 -1.296875 -0.765625 -2.140625q-0.765625 -0.859375 -1.9375 -1.0625q-0.859375 -0.171875 -3.46875 -0.171875l-2.328125 0zm15.229614 2.546875l4.859375 0l4.140625 12.265625l4.03125 -12.265625l4.734375 0l-6.109375 16.625004l-1.078125 3.015625q-0.609375 1.515625 -1.15625 2.3125q-0.546875 0.796875 -1.25 1.28125q-0.703125 0.5 -1.75 0.78125q-1.03125 0.28125 -2.328125 0.28125q-1.3125 0 -2.59375 -0.28125l-0.40625 -3.578125q1.078125 0.21875 1.9375 0.21875q1.59375 0 2.359375 -0.9375q0.765625 -0.9375 1.171875 -2.390625l-6.5625 -17.328129zm28.613647 0l0 3.640625l-3.125 0l0 6.96875q0 2.109375 0.09375 2.46875q0.09375 0.3437538 0.40625 0.5781288q0.3125 0.21875 0.78125 0.21875q0.625 0 1.828125 -0.4375l0.390625 3.546875q-1.59375 0.6875 -3.609375 0.6875q-1.234375 0 -2.234375 -0.40625q-0.984375 -0.421875 -1.453125 -1.078125q-0.46875 -0.65625 -0.640625 -1.78125q-0.140625 -0.796875 -0.140625 -3.2343788l0 -7.53125l-2.109375 0l0 -3.640625l2.109375 0l0 -3.4375l4.578125 -2.671875l0 6.109375l3.125 0zm7.7391357 -6.578125l0 8.78125q2.203125 -2.59375 5.28125 -2.59375q1.578125 0 2.84375 0.59375q1.28125 0.578125 1.921875 1.5q0.640625 0.90625 0.875 2.015625q0.234375 1.09375 0.234375 3.421875l0 10.140629l-4.5625 0l0 -9.125004q0 -2.71875 -0.265625 -3.453125q-0.265625 -0.734375 -0.921875 -1.15625q-0.65625 -0.4375 -1.65625 -0.4375q-1.140625 0 -2.03125 0.5625q-0.890625 0.546875 -1.3125 1.65625q-0.40625 1.109375 -0.40625 3.296875l0 8.656254l-4.578125 0l0 -23.859379l4.578125 0zm14.733154 14.96875q0 -2.265625 1.125 -4.390625q1.125 -2.140625 3.1875 -3.265625q2.0625305 -1.125 4.5937805 -1.125q3.921875 0 6.421875 2.546875q2.515625 2.546875 2.515625 6.4375q0 3.921875 -2.53125 6.500004q-2.53125 2.578125 -6.375 2.578125q-2.375 0 -4.5312805 -1.0625q-2.15625 -1.078125 -3.28125 -3.15625q-1.125 -2.0781288 -1.125 -5.062504zm4.6875 0.25q0 2.578125 1.21875 3.9375q1.2344055 1.3593788 3.0156555 1.3593788q1.796875 0 3.0 -1.3593788q1.21875 -1.359375 1.21875 -3.96875q0 -2.546875 -1.21875 -3.90625q-1.203125 -1.375 -3.0 -1.375q-1.78125 0 -3.0156555 1.375q-1.21875 1.359375 -1.21875 3.9375zm32.451935 8.640629l-4.5625 0l0 -8.812504q0 -2.8125 -0.296875 -3.625q-0.296875 -0.828125 -0.953125 -1.28125q-0.65625 -0.453125 -1.59375 -0.453125q-1.1875 0 -2.140625 0.65625q-0.9375 0.640625 -1.28125 1.71875q-0.34375 1.078125 -0.34375 3.96875l0 7.828129l-4.578125 0l0 -17.281254l4.25 0l0 2.53125q2.265625 -2.921875 5.6875 -2.921875q1.515625 0 2.765625 0.546875q1.265625 0.546875 1.90625 1.390625q0.640625 0.84375 0.890625 1.921875q0.25 1.078125 0.25 3.078125l0 10.734379z"
       fill-rule="nonzero"
       id="path11" />
    <path
       fill="#000000"
       d="m452.859 101.79786l4.421875 -0.546875q0.21875 1.703125 1.140625 2.59375q0.9375 0.890625 2.25 0.890625q1.421875 0 2.390625 -1.0625q0.96875 -1.078125 0.96875 -2.90625q0 -1.71875 -0.9375 -2.71875q-0.921875 -1.015625 -2.25 -1.015625q-0.890625 0 -2.109375 0.34375l0.5 -3.734375q1.859375 0.046875 2.828125 -0.796875q0.984375 -0.859375 0.984375 -2.28125q0 -1.203125 -0.71875 -1.921875q-0.703125 -0.71875 -1.90625 -0.71875q-1.15625 0 -2.0 0.828125q-0.828125 0.8125 -1.0 2.375l-4.21875 -0.71875q0.4375 -2.171875 1.328125 -3.453125q0.890625 -1.296875 2.46875 -2.03125q1.59375 -0.75 3.5625 -0.75q3.359375 0 5.40625 2.140625q1.671875 1.765625 1.671875 3.984375q0 3.140625 -3.4375 5.0q2.046875 0.4375 3.28125 1.96875q1.234375 1.53125 1.234375 3.703125q0 3.140625 -2.296875 5.359375q-2.296875 2.203125 -5.71875 2.203125q-3.234375 0 -5.375 -1.859375q-2.125 -1.859375 -2.46875 -4.875zm19.676147 6.328125l0 -4.578125l4.578125 0l0 4.578125l-4.578125 0zm8.290863 -19.28125l0 -4.25l15.625 0l0 3.3125q-1.921875 1.90625 -3.9375 5.46875q-2.0 3.5625 -3.046875 7.578125q-1.046875 4.015625 -1.03125 7.171875l-4.40625 0q0.109375 -4.953125 2.03125 -10.09375q1.9375 -5.140625 5.15625 -9.1875l-10.390625 0zm19.504272 19.28125l0 -4.578125l4.578125 0l0 4.578125l-4.578125 0zm8.119019 -6.328125l4.4219055 -0.546875q0.21875 1.703125 1.140625 2.59375q0.9375 0.890625 2.25 0.890625q1.421875 0 2.390625 -1.0625q0.96875 -1.078125 0.96875 -2.90625q0 -1.71875 -0.9375 -2.71875q-0.921875 -1.015625 -2.25 -1.015625q-0.890625 0 -2.109375 0.34375l0.5 -3.734375q1.859375 0.046875 2.828125 -0.796875q0.984375 -0.859375 0.984375 -2.28125q0 -1.203125 -0.71875 -1.921875q-0.703125 -0.71875 -1.90625 -0.71875q-1.15625 0 -2.0 0.828125q-0.828125 0.8125 -1.0 2.375l-4.2187805 -0.71875q0.4375 -2.171875 1.328125 -3.453125q0.890625 -1.296875 2.4687805 -2.03125q1.59375 -0.75 3.5625 -0.75q3.359375 0 5.40625 2.140625q1.671875 1.765625 1.671875 3.984375q0 3.140625 -3.4375 5.0q2.046875 0.4375 3.28125 1.96875q1.234375 1.53125 1.234375 3.703125q0 3.140625 -2.296875 5.359375q-2.296875 2.203125 -5.71875 2.203125q-3.234375 0 -5.3750305 -1.859375q-2.125 -1.859375 -2.46875 -4.875z"
       fill-rule="nonzero"
       id="path13" />
    <path
       fill="#d0e0e3"
       d="m16.695538 393.19727l0 0c0 -11.886658 9.636059 -21.522736 21.52274 -21.522736l196.26161 0c5.7081757 0 11.182571 2.2675781 15.218872 6.3038635c4.0363007 4.036316 6.3038635 9.510712 6.3038635 15.218872l0 86.08838c0 11.886688 -9.636063 21.522766 -21.522736 21.522766l-196.26161 0c-11.886681 0 -21.52274 -9.636078 -21.52274 -21.522766z"
       fill-rule="evenodd"
       id="path15" />
    <path
       stroke="#000000"
       stroke-width="3.0"
       stroke-linejoin="round"
       stroke-linecap="butt"
       d="m16.695538 393.19727l0 0c0 -11.886658 9.636059 -21.522736 21.52274 -21.522736l196.26161 0c5.7081757 0 11.182571 2.2675781 15.218872 6.3038635c4.0363007 4.036316 6.3038635 9.510712 6.3038635 15.218872l0 86.08838c0 11.886688 -9.636063 21.522766 -21.522736 21.522766l-196.26161 0c-11.886681 0 -21.52274 -9.636078 -21.52274 -21.522766z"
       fill-rule="evenodd"
       id="path17" />
    <path
       fill="#000000"
       d="m86.313354 384.01334l3.40625 0l0 2.03125q0.671875 -1.03125 1.796875 -1.6875q1.125 -0.65625 2.515625 -0.65625q2.40625 0 4.078125 1.890625q1.6875 1.890625 1.6875 5.265625q0 3.453125 -1.703125 5.375q-1.6875 1.921875 -4.09375 1.921875q-1.140625 0 -2.078125 -0.453125q-0.921875 -0.453125 -1.953125 -1.5625l0 6.96875l-3.65625 0l0 -19.09375zm3.609375 6.6875q0 2.328125 0.921875 3.4375q0.9375 1.109375 2.265625 1.109375q1.265625 0 2.109375 -1.015625q0.859375 -1.03125 0.859375 -3.359375q0 -2.171875 -0.875 -3.21875q-0.875 -1.0625 -2.171875 -1.0625q-1.328125 0 -2.21875 1.046875q-0.890625 1.03125 -0.890625 3.0625zm16.2827 7.140625l-3.671875 0l0 -13.828125l3.40625 0l0 1.96875q0.875 -1.390625 1.5625 -1.828125q0.703125 -0.453125 1.578125 -0.453125q1.25 0 2.421875 0.703125l-1.140625 3.1875q-0.921875 -0.609375 -1.71875 -0.609375q-0.765625 0 -1.296875 0.421875q-0.53125 0.421875 -0.84375 1.53125q-0.296875 1.109375 -0.296875 4.640625l0 4.265625zm6.0141754 -7.109375q0 -1.8125 0.890625 -3.515625q0.90625 -1.71875 2.546875 -2.609375q1.65625 -0.90625 3.6875 -0.90625q3.140625 0 5.140625 2.046875q2.0 2.03125 2.0 5.140625q0 3.140625 -2.03125 5.203125q-2.015625 2.0625 -5.078125 2.0625q-1.90625 0 -3.640625 -0.859375q-1.71875 -0.859375 -2.625 -2.515625q-0.890625 -1.65625 -0.890625 -4.046875zm3.75 0.203125q0 2.046875 0.96875 3.140625q0.984375 1.09375 2.421875 1.09375q1.421875 0 2.390625 -1.09375q0.984375 -1.09375 0.984375 -3.171875q0 -2.03125 -0.984375 -3.125q-0.96875 -1.09375 -2.390625 -1.09375q-1.4375 0 -2.421875 1.09375q-0.96875 1.09375 -0.96875 3.15625zm13.298325 -8.796875l0 -3.375l3.671875 0l0 3.375l-3.671875 0zm3.671875 1.875l0 13.40625q0 2.640625 -0.359375 3.71875q-0.34375 1.09375 -1.328125 1.703125q-0.96875 0.609375 -2.5 0.609375q-0.546875 0 -1.1875 -0.09375q-0.625 -0.09375 -1.34375 -0.296875l0.640625 -3.125q0.25 0.046875 0.484375 0.078125q0.21875 0.046875 0.421875 0.046875q0.5625 0 0.90625 -0.25q0.359375 -0.234375 0.46875 -0.578125q0.125 -0.34375 0.125 -2.03125l0 -13.1875l3.671875 0zm11.827835 9.421875l3.640625 0.625q-0.703125 2.0 -2.21875 3.046875q-1.515625 1.046875 -3.796875 1.046875q-3.609375 0 -5.328125 -2.359375q-1.375 -1.890625 -1.375 -4.765625q0 -3.4375 1.796875 -5.375q1.796875 -1.953125 4.546875 -1.953125q3.078125 0 4.859375 2.046875q1.78125 2.03125 1.703125 6.234375l-9.15625 0q0.046875 1.625 0.890625 2.53125q0.84375 0.90625 2.109375 0.90625q0.859375 0 1.4375 -0.46875q0.59375 -0.46875 0.890625 -1.515625zm0.203125 -3.6875q-0.03125 -1.59375 -0.8125 -2.421875q-0.78125 -0.828125 -1.90625 -0.828125q-1.203125 0 -1.984375 0.875q-0.78125 0.875 -0.765625 2.375l5.46875 0zm18.66867 -1.640625l-3.609375 0.65625q-0.1875 -1.09375 -0.828125 -1.640625q-0.640625 -0.546875 -1.671875 -0.546875q-1.359375 0 -2.171875 0.953125q-0.8125 0.9375 -0.8125 3.15625q0 2.453125 0.8125 3.46875q0.828125 1.015625 2.21875 1.015625q1.046875 0 1.703125 -0.59375q0.671875 -0.59375 0.953125 -2.03125l3.578125 0.609375q-0.546875 2.46875 -2.140625 3.734375q-1.59375 1.265625 -4.25 1.265625q-3.03125 0 -4.84375 -1.90625q-1.7968597 -1.921875 -1.7968597 -5.296875q0 -3.4375 1.7968597 -5.34375q1.8125 -1.90625 4.90625 -1.90625q2.515625 0 4.0 1.09375q1.5 1.078125 2.15625 3.3125zm9.106201 -4.09375l0 2.921875l-2.5 0l0 5.5625q0 1.703125 0.0625 1.984375q0.078125 0.28125 0.328125 0.46875q0.265625 0.171875 0.625 0.171875q0.515625 0 1.46875 -0.359375l0.3125 2.84375q-1.265625 0.546875 -2.890625 0.546875q-0.984375 0 -1.78125 -0.328125q-0.796875 -0.328125 -1.171875 -0.859375q-0.359375 -0.53125 -0.5 -1.421875q-0.125 -0.640625 -0.125 -2.578125l0 -6.03125l-1.671875 0l0 -2.921875l1.671875 0l0 -2.734375l3.671875 -2.140625l0 4.875l2.5 0zm11.1111145 13.828125l-3.65625 0l0 -13.78125q-2.0 1.875 -4.71875 2.765625l0 -3.3125q1.4375 -0.46875 3.109375 -1.78125q1.671875 -1.3125 2.296875 -3.046875l2.96875 0l0 19.15625z"
       fill-rule="nonzero"
       id="path19" />
    <path
       fill="#000000"
       d="m105.78051 461.84146l-3.65625 -19.078125l2.453125 0l2.21875 11.375q0.609375 3.09375 0.78125 5.0q1.203125 -2.453125 1.96875 -3.890625l6.8125 -12.484375l2.625 0l-10.46875 19.078125l-2.734375 0zm14.56337 -16.40625l0.5625 -2.671875l2.328125 0l-0.546875 2.671875l-2.34375 0zm-3.4375 16.40625l2.890625 -13.828125l2.359375 0l-2.890625 13.828125l-2.359375 0zm6.015915 0l2.890625 -13.828125l2.078125 0l-0.59375 2.828125q1.0781174 -1.59375 2.0937424 -2.359375q1.015625 -0.78125 2.09375 -0.78125q0.703125 0 1.734375 0.515625l-0.96875 2.1875q-0.609375 -0.453125 -1.34375 -0.453125q-1.234375 0 -2.546875 1.390625q-1.2968674 1.375 -2.0312424 4.953125l-1.171875 5.546875l-2.234375 0zm14.376732 -1.90625l-0.390625 1.921875q-0.84375 0.21875 -1.640625 0.21875q-1.40625 0 -2.234375 -0.6875q-0.625 -0.515625 -0.625 -1.421875q0 -0.453125 0.328125 -2.09375l1.6875 -8.03125l-1.859375 0l0.375 -1.828125l1.859375 0l0.71875 -3.390625l2.6875 -1.625l-1.046875 5.015625l2.3125 0l-0.390625 1.828125l-2.296875 0l-1.609375 7.640625q-0.296875 1.453125 -0.296875 1.75q0 0.40625 0.234375 0.640625q0.25 0.21875 0.796875 0.21875q0.78125 0 1.390625 -0.15625zm11.34346 -0.59375q-2.5 2.8125 -5.09375 2.8125q-1.609375 0 -2.59375 -0.90625q-0.96875 -0.921875 -0.96875 -2.25q0 -0.875 0.4375 -3.0l1.671875 -7.984375l2.34375 0l-1.84375 8.84375q-0.234375 1.109375 -0.234375 1.71875q0 0.78125 0.46875 1.21875q0.484375 0.4375 1.40625 0.4375q0.984375 0 1.921875 -0.484375q0.953125 -0.484375 1.640625 -1.296875q0.6875 -0.828125 1.109375 -1.953125q0.28125 -0.703125 0.671875 -2.5l1.25 -5.984375l2.34375 0l-2.890625 13.828125l-2.171875 0l0.53125 -2.5zm14.699936 0.78125q-1.21875 1.0625 -2.359375 1.546875q-1.125 0.484375 -2.421875 0.484375q-1.90625 0 -3.078125 -1.125q-1.171875 -1.125 -1.171875 -2.890625q0 -1.15625 0.515625 -2.046875q0.53125 -0.890625 1.40625 -1.421875q0.875 -0.546875 2.140625 -0.78125q0.796875 -0.15625 3.015625 -0.25q2.21875 -0.09375 3.171875 -0.46875q0.28125 -0.953125 0.28125 -1.59375q0 -0.828125 -0.59375 -1.296875q-0.828125 -0.640625 -2.40625 -0.640625q-1.484375 0 -2.421875 0.65625q-0.9375 0.65625 -1.375 1.859375l-2.375 -0.203125q0.71875 -2.0625 2.296875 -3.15625q1.59375 -1.09375 4.0 -1.09375q2.5625 0 4.0625 1.234375q1.140625 0.90625 1.140625 2.359375q0 1.109375 -0.328125 2.5625l-0.765625 3.4375q-0.359375 1.640625 -0.359375 2.671875q0 0.65625 0.28125 1.875l-2.375 0q-0.203125 -0.671875 -0.28125 -1.71875zm0.875 -5.28125q-0.5 0.1875 -1.0625 0.296875q-0.5625 0.109375 -1.890625 0.21875q-2.0625 0.1875 -2.90625 0.46875q-0.84375 0.28125 -1.28125 0.890625q-0.421875 0.609375 -0.421875 1.34375q0 1.0 0.671875 1.640625q0.6875 0.625 1.953125 0.625q1.171875 0 2.25 -0.609375q1.078125 -0.625 1.703125 -1.71875q0.625 -1.109375 0.984375 -3.15625zm4.449936 7.0l3.984375 -19.078125l2.359375 0l-3.984375 19.078125l-2.359375 0z"
       fill-rule="nonzero"
       id="path21" />
    <path
       fill="#000000"
       d="m62.731182 493.84146l3.9843788 -19.078125l13.78125 0l-0.453125 2.171875l-11.234375 0l-1.234375 5.9375l10.921875 0l-0.453125 2.171875l-10.9375 0l-1.375 6.640625l12.015625 0l-0.453125 2.15625l-14.562504 0zm17.467014 0l2.890625 -13.828125l2.125 0l-0.5 2.40625q1.390625 -1.40625 2.59375 -2.0625q1.21875 -0.65625 2.484375 -0.65625q1.671875 0 2.625 0.921875q0.953125 0.90625 0.953125 2.421875q0 0.78125 -0.328125 2.421875l-1.765625 8.375l-2.34375 0l1.828125 -8.765625q0.28125 -1.265625 0.28125 -1.875q0 -0.703125 -0.484375 -1.125q-0.46875 -0.4375 -1.375 -0.4375q-1.8125 0 -3.21875 1.3125q-1.40625 1.296875 -2.078125 4.453125l-1.34375 6.4375l-2.34375 0zm18.30931 0l-2.265625 -13.828125l2.296875 0l1.171875 7.625q0.203125 1.25 0.484375 4.0625q0.671875 -1.46875 1.734375 -3.359375l4.625 -8.328125l2.484375 0l-7.921875 13.828125l-2.609375 0zm13.1875 -16.40625l0.5625 -2.671875l2.328125 0l-0.546875 2.671875l-2.34375 0zm-3.4375 16.40625l2.890625 -13.828125l2.359375 0l-2.890625 13.828125l-2.359375 0zm6.015915 0l2.890625 -13.828125l2.078125 0l-0.59375 2.828125q1.078125 -1.59375 2.09375 -2.359375q1.015625 -0.78125 2.09375 -0.78125q0.703125 0 1.734375 0.515625l-0.96875 2.1875q-0.609375 -0.453125 -1.34375 -0.453125q-1.234375 0 -2.546875 1.390625q-1.296875 1.375 -2.03125 4.953125l-1.171875 5.546875l-2.234375 0zm9.2829895 -5.25q0 -4.046875 2.390625 -6.703125q1.96875 -2.1875 5.15625 -2.1875q2.5 0 4.015625 1.5625q1.53125 1.5625 1.53125 4.21875q0 2.390625 -0.96875 4.4375q-0.953125 2.046875 -2.734375 3.140625q-1.765625 1.09375 -3.734375 1.09375q-1.609375 0 -2.9375 -0.6875q-1.328125 -0.6875 -2.03125 -1.953125q-0.6875 -1.265625 -0.6875 -2.921875zm2.359375 -0.234375q0 1.953125 0.9375 2.96875q0.9375 1.0 2.375 1.0q0.765625 0 1.5 -0.296875q0.75 -0.3125 1.375 -0.9375q0.640625 -0.625 1.09375 -1.421875q0.453125 -0.796875 0.71875 -1.71875q0.40625 -1.296875 0.40625 -2.484375q0 -1.875 -0.953125 -2.90625q-0.9375 -1.03125 -2.359375 -1.03125q-1.109375 0 -2.03125 0.53125q-0.90625 0.515625 -1.640625 1.53125q-0.734375 1.015625 -1.078125 2.375q-0.34375 1.34375 -0.34375 2.390625zm12.059311 5.484375l2.890625 -13.828125l2.125 0l-0.5 2.40625q1.390625 -1.40625 2.59375 -2.0625q1.21875 -0.65625 2.484375 -0.65625q1.671875 0 2.625 0.921875q0.953125 0.90625 0.953125 2.421875q0 0.78125 -0.328125 2.421875l-1.765625 8.375l-2.34375 0l1.828125 -8.765625q0.28125 -1.265625 0.28125 -1.875q0 -0.703125 -0.484375 -1.125q-0.46875 -0.4375 -1.375 -0.4375q-1.8125 0 -3.21875 1.3125q-1.40625 1.296875 -2.078125 4.453125l-1.34375 6.4375l-2.34375 0zm14.809296 0l2.890625 -13.828125l2.359375 0l-0.484375 2.28125q1.3125 -1.46875 2.34375 -2.03125q1.03125 -0.5625 2.25 -0.5625q1.28125 0 2.140625 0.6875q0.875 0.6875 1.140625 1.90625q1.0625 -1.296875 2.21875 -1.9375q1.171875 -0.65625 2.46875 -0.65625q1.71875 0 2.578125 0.828125q0.875 0.8125 0.875 2.296875q0 0.640625 -0.296875 2.109375l-1.859375 8.90625l-2.359375 0l1.90625 -9.140625q0.25 -1.109375 0.25 -1.59375q0 -0.6875 -0.4375 -1.078125q-0.421875 -0.390625 -1.203125 -0.390625q-1.0625 0 -2.15625 0.640625q-1.09375 0.640625 -1.703125 1.6875q-0.59375 1.03125 -1.046875 3.171875l-1.40625 6.703125l-2.359375 0l1.953125 -9.328125q0.203125 -0.953125 0.203125 -1.359375q0 -0.671875 -0.421875 -1.09375q-0.421875 -0.421875 -1.09375 -0.421875q-1.015625 0 -2.109375 0.640625q-1.09375 0.640625 -1.796875 1.78125q-0.6875 1.140625 -1.125 3.25l-1.359375 6.53125l-2.359375 0zm32.361115 -4.703125l2.296875 0.234375q-0.5 1.703125 -2.28125 3.25q-1.765625 1.53125 -4.234375 1.53125q-1.53125 0 -2.8125 -0.703125q-1.28125 -0.71875 -1.953125 -2.0625q-0.671875 -1.359375 -0.671875 -3.09375q0 -2.265625 1.046875 -4.390625q1.046875 -2.125 2.71875 -3.15625q1.671875 -1.046875 3.609375 -1.046875q2.46875 0 3.9375 1.546875q1.484375 1.53125 1.484375 4.1875q0 1.015625 -0.1875 2.078125l-10.171875 0q-0.046875 0.40625 -0.046875 0.734375q0 1.9375 0.890625 2.96875q0.890625 1.015625 2.171875 1.015625q1.21875 0 2.390625 -0.796875q1.171875 -0.796875 1.8125 -2.296875zm-6.84375 -3.421875l7.765625 0q0.015625 -0.359375 0.015625 -0.515625q0 -1.765625 -0.890625 -2.703125q-0.890625 -0.953125 -2.28125 -0.953125q-1.515625 0 -2.765625 1.046875q-1.234375 1.03125 -1.84375 3.125zm11.528076 8.125l2.890625 -13.828125l2.125 0l-0.5 2.40625q1.390625 -1.40625 2.59375 -2.0625q1.21875 -0.65625 2.484375 -0.65625q1.671875 0 2.625 0.921875q0.953125 0.90625 0.953125 2.421875q0 0.78125 -0.328125 2.421875l-1.765625 8.375l-2.34375 0l1.828125 -8.765625q0.28125 -1.265625 0.28125 -1.875q0 -0.703125 -0.484375 -1.125q-0.46875 -0.4375 -1.375 -0.4375q-1.8125 0 -3.21875 1.3125q-1.40625 1.296875 -2.078125 4.453125l-1.34375 6.4375l-2.34375 0zm20.32492 -1.90625l-0.390625 1.921875q-0.84375 0.21875 -1.640625 0.21875q-1.40625 0 -2.234375 -0.6875q-0.625 -0.515625 -0.625 -1.421875q0 -0.453125 0.328125 -2.09375l1.6875 -8.03125l-1.859375 0l0.375 -1.828125l1.859375 0l0.71875 -3.390625l2.6875 -1.625l-1.046875 5.015625l2.3125 0l-0.390625 1.828125l-2.296875 0l-1.609375 7.640625q-0.296875 1.453125 -0.296875 1.75q0 0.40625 0.234375 0.640625q0.25 0.21875 0.796875 0.21875q0.78125 0 1.390625 -0.15625z"
       fill-rule="nonzero"
       id="path23" />
    <path
       fill="#d0e0e3"
       d="m369.01837 393.19727l0 0c0 -11.886658 9.636047 -21.522736 21.522736 -21.522736l196.26163 0c5.708191 0 11.182556 2.2675781 15.218872 6.3038635c4.036255 4.036316 6.303833 9.510712 6.303833 15.218872l0 86.08838c0 11.886688 -9.636047 21.522766 -21.522705 21.522766l-196.26163 0c-11.886688 0 -21.522736 -9.636078 -21.522736 -21.522766z"
       fill-rule="evenodd"
       id="path25" />
    <path
       stroke="#000000"
       stroke-width="3.0"
       stroke-linejoin="round"
       stroke-linecap="butt"
       d="m369.01837 393.19727l0 0c0 -11.886658 9.636047 -21.522736 21.522736 -21.522736l196.26163 0c5.708191 0 11.182556 2.2675781 15.218872 6.3038635c4.036255 4.036316 6.303833 9.510712 6.303833 15.218872l0 86.08838c0 11.886688 -9.636047 21.522766 -21.522705 21.522766l-196.26163 0c-11.886688 0 -21.522736 -9.636078 -21.522736 -21.522766z"
       fill-rule="evenodd"
       id="path27" />
    <path
       fill="#000000"
       d="m438.6362 384.01334l3.40625 0l0 2.03125q0.671875 -1.03125 1.796875 -1.6875q1.125 -0.65625 2.515625 -0.65625q2.40625 0 4.078125 1.890625q1.6875 1.890625 1.6875 5.265625q0 3.453125 -1.703125 5.375q-1.6875 1.921875 -4.09375 1.921875q-1.140625 0 -2.078125 -0.453125q-0.921875 -0.453125 -1.953125 -1.5625l0 6.96875l-3.65625 0l0 -19.09375zm3.609375 6.6875q0 2.328125 0.921875 3.4375q0.9375 1.109375 2.265625 1.109375q1.265625 0 2.109375 -1.015625q0.859375 -1.03125 0.859375 -3.359375q0 -2.171875 -0.875 -3.21875q-0.875 -1.0625 -2.171875 -1.0625q-1.328125 0 -2.21875 1.046875q-0.890625 1.03125 -0.890625 3.0625zm16.282684 7.140625l-3.671875 0l0 -13.828125l3.40625 0l0 1.96875q0.875 -1.390625 1.5625 -1.828125q0.703125 -0.453125 1.578125 -0.453125q1.25 0 2.421875 0.703125l-1.140625 3.1875q-0.921875 -0.609375 -1.71875 -0.609375q-0.765625 0 -1.296875 0.421875q-0.53125 0.421875 -0.84375 1.53125q-0.296875 1.109375 -0.296875 4.640625l0 4.265625zm6.0141907 -7.109375q0 -1.8125 0.890625 -3.515625q0.90625 -1.71875 2.546875 -2.609375q1.65625 -0.90625 3.6875 -0.90625q3.140625 0 5.140625 2.046875q2.0 2.03125 2.0 5.140625q0 3.140625 -2.03125 5.203125q-2.015625 2.0625 -5.078125 2.0625q-1.90625 0 -3.640625 -0.859375q-1.71875 -0.859375 -2.625 -2.515625q-0.890625 -1.65625 -0.890625 -4.046875zm3.75 0.203125q0 2.046875 0.96875 3.140625q0.984375 1.09375 2.421875 1.09375q1.421875 0 2.390625 -1.09375q0.984375 -1.09375 0.984375 -3.171875q0 -2.03125 -0.984375 -3.125q-0.96875 -1.09375 -2.390625 -1.09375q-1.4375 0 -2.421875 1.09375q-0.96875 1.09375 -0.96875 3.15625zm13.298309 -8.796875l0 -3.375l3.671875 0l0 3.375l-3.671875 0zm3.671875 1.875l0 13.40625q0 2.640625 -0.359375 3.71875q-0.34375 1.09375 -1.328125 1.703125q-0.96875 0.609375 -2.5 0.609375q-0.546875 0 -1.1875 -0.09375q-0.625 -0.09375 -1.34375 -0.296875l0.640625 -3.125q0.25 0.046875 0.484375 0.078125q0.21875 0.046875 0.421875 0.046875q0.5625 0 0.90625 -0.25q0.359375 -0.234375 0.46875 -0.578125q0.125 -0.34375 0.125 -2.03125l0 -13.1875l3.671875 0zm11.82785 9.421875l3.640625 0.625q-0.703125 2.0 -2.21875 3.046875q-1.515625 1.046875 -3.796875 1.046875q-3.609375 0 -5.328125 -2.359375q-1.375 -1.890625 -1.375 -4.765625q0 -3.4375 1.796875 -5.375q1.796875 -1.953125 4.546875 -1.953125q3.078125 0 4.859375 2.046875q1.78125 2.03125 1.703125 6.234375l-9.15625 0q0.046875 1.625 0.890625 2.53125q0.84375 0.90625 2.109375 0.90625q0.859375 0 1.4375 -0.46875q0.59375 -0.46875 0.890625 -1.515625zm0.203125 -3.6875q-0.03125 -1.59375 -0.8125 -2.421875q-0.78125 -0.828125 -1.90625 -0.828125q-1.203125 0 -1.984375 0.875q-0.78125 0.875 -0.765625 2.375l5.46875 0zm18.66867 -1.640625l-3.609375 0.65625q-0.1875 -1.09375 -0.828125 -1.640625q-0.640625 -0.546875 -1.671875 -0.546875q-1.359375 0 -2.171875 0.953125q-0.8125 0.9375 -0.8125 3.15625q0 2.453125 0.8125 3.46875q0.828125 1.015625 2.21875 1.015625q1.046875 0 1.703125 -0.59375q0.671875 -0.59375 0.953125 -2.03125l3.578125 0.609375q-0.546875 2.46875 -2.140625 3.734375q-1.59375 1.265625 -4.25 1.265625q-3.03125 0 -4.84375 -1.90625q-1.796875 -1.921875 -1.796875 -5.296875q0 -3.4375 1.796875 -5.34375q1.8125 -1.90625 4.90625 -1.90625q2.515625 0 4.0 1.09375q1.5 1.078125 2.15625 3.3125zm9.106201 -4.09375l0 2.921875l-2.5 0l0 5.5625q0 1.703125 0.0625 1.984375q0.078125 0.28125 0.328125 0.46875q0.265625 0.171875 0.625 0.171875q0.515625 0 1.46875 -0.359375l0.3125 2.84375q-1.265625 0.546875 -2.890625 0.546875q-0.984375 0 -1.78125 -0.328125q-0.796875 -0.328125 -1.171875 -0.859375q-0.359375 -0.53125 -0.5 -1.421875q-0.125 -0.640625 -0.125 -2.578125l0 -6.03125l-1.671875 0l0 -2.921875l1.671875 0l0 -2.734375l3.671875 -2.140625l0 4.875l2.5 0zm14.111084 10.4375l0 3.390625l-12.828125 0q0.21875 -1.921875 1.25 -3.640625q1.046875 -1.734375 4.125 -4.578125q2.46875 -2.3125 3.03125 -3.125q0.75 -1.140625 0.75 -2.25q0 -1.21875 -0.65625 -1.875q-0.65625 -0.65625 -1.8125 -0.65625q-1.140625 0 -1.828125 0.6875q-0.671875 0.6875 -0.78125 2.296875l-3.640625 -0.375q0.328125 -3.015625 2.046875 -4.328125q1.71875 -1.3125 4.296875 -1.3125q2.8125 0 4.421875 1.53125q1.625 1.515625 1.625 3.78125q0 1.28125 -0.46875 2.453125q-0.453125 1.15625 -1.453125 2.4375q-0.671875 0.84375 -2.40625 2.4375q-1.71875 1.578125 -2.1875 2.109375q-0.453125 0.515625 -0.75 1.015625l7.265625 0z"
       fill-rule="nonzero"
       id="path29" />
    <path
       fill="#000000"
       d="m458.10333 461.84146l-3.65625 -19.078125l2.453125 0l2.21875 11.375q0.609375 3.09375 0.78125 5.0q1.203125 -2.453125 1.96875 -3.890625l6.8125 -12.484375l2.625 0l-10.46875 19.078125l-2.734375 0zm14.563385 -16.40625l0.5625 -2.671875l2.328125 0l-0.546875 2.671875l-2.34375 0zm-3.4375 16.40625l2.890625 -13.828125l2.359375 0l-2.890625 13.828125l-2.359375 0zm6.0158997 0l2.890625 -13.828125l2.078125 0l-0.59375 2.828125q1.078125 -1.59375 2.09375 -2.359375q1.015625 -0.78125 2.09375 -0.78125q0.703125 0 1.734375 0.515625l-0.96875 2.1875q-0.609375 -0.453125 -1.34375 -0.453125q-1.234375 0 -2.546875 1.390625q-1.296875 1.375 -2.03125 4.953125l-1.171875 5.546875l-2.234375 0zm14.3767395 -1.90625l-0.390625 1.921875q-0.84375 0.21875 -1.640625 0.21875q-1.40625 0 -2.234375 -0.6875q-0.625 -0.515625 -0.625 -1.421875q0 -0.453125 0.328125 -2.09375l1.6875 -8.03125l-1.859375 0l0.375 -1.828125l1.859375 0l0.71875 -3.390625l2.6875 -1.625l-1.046875 5.015625l2.3125 0l-0.390625 1.828125l-2.296875 0l-1.609375 7.640625q-0.296875 1.453125 -0.296875 1.75q0 0.40625 0.234375 0.640625q0.25 0.21875 0.796875 0.21875q0.78125 0 1.390625 -0.15625zm11.343475 -0.59375q-2.5 2.8125 -5.09375 2.8125q-1.609375 0 -2.59375 -0.90625q-0.96875 -0.921875 -0.96875 -2.25q0 -0.875 0.4375 -3.0l1.671875 -7.984375l2.34375 0l-1.84375 8.84375q-0.234375 1.109375 -0.234375 1.71875q0 0.78125 0.46875 1.21875q0.484375 0.4375 1.40625 0.4375q0.984375 0 1.921875 -0.484375q0.953125 -0.484375 1.640625 -1.296875q0.6875 -0.828125 1.109375 -1.953125q0.28125 -0.703125 0.671875 -2.5l1.25 -5.984375l2.34375 0l-2.890625 13.828125l-2.171875 0l0.53125 -2.5zm14.699951 0.78125q-1.21875 1.0625 -2.359375 1.546875q-1.125 0.484375 -2.4219055 0.484375q-1.90625 0 -3.078125 -1.125q-1.171875 -1.125 -1.171875 -2.890625q0 -1.15625 0.515625 -2.046875q0.53125 -0.890625 1.40625 -1.421875q0.875 -0.546875 2.140625 -0.78125q0.796875 -0.15625 3.0156555 -0.25q2.21875 -0.09375 3.171875 -0.46875q0.28125 -0.953125 0.28125 -1.59375q0 -0.828125 -0.59375 -1.296875q-0.828125 -0.640625 -2.40625 -0.640625q-1.484375 0 -2.4219055 0.65625q-0.9375 0.65625 -1.375 1.859375l-2.375 -0.203125q0.71875 -2.0625 2.296875 -3.15625q1.59375 -1.09375 4.0000305 -1.09375q2.5625 0 4.0625 1.234375q1.140625 0.90625 1.140625 2.359375q0 1.109375 -0.328125 2.5625l-0.765625 3.4375q-0.359375 1.640625 -0.359375 2.671875q0 0.65625 0.28125 1.875l-2.375 0q-0.203125 -0.671875 -0.28125 -1.71875zm0.875 -5.28125q-0.5 0.1875 -1.0625 0.296875q-0.5625 0.109375 -1.890625 0.21875q-2.0625305 0.1875 -2.9062805 0.46875q-0.84375 0.28125 -1.28125 0.890625q-0.421875 0.609375 -0.421875 1.34375q0 1.0 0.671875 1.640625q0.6875 0.625 1.953125 0.625q1.1719055 0 2.2500305 -0.609375q1.078125 -0.625 1.703125 -1.71875q0.625 -1.109375 0.984375 -3.15625zm4.44989 7.0l3.984375 -19.078125l2.359375 0l-3.984375 19.078125l-2.359375 0z"
       fill-rule="nonzero"
       id="path31" />
    <path
       fill="#000000"
       d="m415.05402 493.84146l3.984375 -19.078125l13.78125 0l-0.453125 2.171875l-11.234375 0l-1.234375 5.9375l10.921875 0l-0.453125 2.171875l-10.9375 0l-1.375 6.640625l12.015625 0l-0.453125 2.15625l-14.5625 0zm17.46701 0l2.890625 -13.828125l2.125 0l-0.5 2.40625q1.390625 -1.40625 2.59375 -2.0625q1.21875 -0.65625 2.484375 -0.65625q1.671875 0 2.625 0.921875q0.953125 0.90625 0.953125 2.421875q0 0.78125 -0.328125 2.421875l-1.765625 8.375l-2.34375 0l1.828125 -8.765625q0.28125 -1.265625 0.28125 -1.875q0 -0.703125 -0.484375 -1.125q-0.46875 -0.4375 -1.375 -0.4375q-1.8125 0 -3.21875 1.3125q-1.40625 1.296875 -2.078125 4.453125l-1.34375 6.4375l-2.34375 0zm18.309326 0l-2.265625 -13.828125l2.296875 0l1.171875 7.625q0.203125 1.25 0.484375 4.0625q0.671875 -1.46875 1.734375 -3.359375l4.625 -8.328125l2.484375 0l-7.921875 13.828125l-2.609375 0zm13.1875 -16.40625l0.5625 -2.671875l2.328125 0l-0.546875 2.671875l-2.34375 0zm-3.4375 16.40625l2.890625 -13.828125l2.359375 0l-2.890625 13.828125l-2.359375 0zm6.0158997 0l2.890625 -13.828125l2.078125 0l-0.59375 2.828125q1.078125 -1.59375 2.09375 -2.359375q1.015625 -0.78125 2.09375 -0.78125q0.703125 0 1.734375 0.515625l-0.96875 2.1875q-0.609375 -0.453125 -1.34375 -0.453125q-1.234375 0 -2.546875 1.390625q-1.296875 1.375 -2.03125 4.953125l-1.171875 5.546875l-2.234375 0zm9.2829895 -5.25q0 -4.046875 2.390625 -6.703125q1.96875 -2.1875 5.15625 -2.1875q2.5 0 4.015625 1.5625q1.53125 1.5625 1.53125 4.21875q0 2.390625 -0.96875 4.4375q-0.953125 2.046875 -2.734375 3.140625q-1.765625 1.09375 -3.734375 1.09375q-1.609375 0 -2.9375 -0.6875q-1.328125 -0.6875 -2.03125 -1.953125q-0.6875 -1.265625 -0.6875 -2.921875zm2.359375 -0.234375q0 1.953125 0.9375 2.96875q0.9375 1.0 2.375 1.0q0.765625 0 1.5 -0.296875q0.75 -0.3125 1.375 -0.9375q0.640625 -0.625 1.09375 -1.421875q0.453125 -0.796875 0.71875 -1.71875q0.40625 -1.296875 0.40625 -2.484375q0 -1.875 -0.953125 -2.90625q-0.9375 -1.03125 -2.359375 -1.03125q-1.109375 0 -2.03125 0.53125q-0.90625 0.515625 -1.640625 1.53125q-0.734375 1.015625 -1.078125 2.375q-0.34375 1.34375 -0.34375 2.390625zm12.059326 5.484375l2.890625 -13.828125l2.125 0l-0.5 2.40625q1.390625 -1.40625 2.59375 -2.0625q1.21875 -0.65625 2.484375 -0.65625q1.671875 0 2.625 0.921875q0.953125 0.90625 0.953125 2.421875q0 0.78125 -0.328125 2.421875l-1.765625 8.375l-2.34375 0l1.828125 -8.765625q0.28125 -1.265625 0.28125 -1.875q0 -0.703125 -0.484375 -1.125q-0.46875 -0.4375 -1.375 -0.4375q-1.8125 0 -3.21875 1.3125q-1.40625 1.296875 -2.078125 4.453125l-1.34375 6.4375l-2.34375 0zm14.809296 0l2.890625 -13.828125l2.359375 0l-0.484375 2.28125q1.3125 -1.46875 2.34375 -2.03125q1.03125 -0.5625 2.25 -0.5625q1.28125 0 2.140625 0.6875q0.875 0.6875 1.140625 1.90625q1.0625 -1.296875 2.21875 -1.9375q1.171875 -0.65625 2.46875 -0.65625q1.71875 0 2.578125 0.828125q0.875 0.8125 0.875 2.296875q0 0.640625 -0.296875 2.109375l-1.859375 8.90625l-2.359375 0l1.90625 -9.140625q0.25 -1.109375 0.25 -1.59375q0 -0.6875 -0.4375 -1.078125q-0.421875 -0.390625 -1.203125 -0.390625q-1.0625 0 -2.15625 0.640625q-1.09375 0.640625 -1.703125 1.6875q-0.59375 1.03125 -1.046875 3.171875l-1.40625 6.703125l-2.359375 0l1.953125 -9.328125q0.203125 -0.953125 0.203125 -1.359375q0 -0.671875 -0.421875 -1.09375q-0.421875 -0.421875 -1.09375 -0.421875q-1.015625 0 -2.109375 0.640625q-1.09375 0.640625 -1.796875 1.78125q-0.6875 1.140625 -1.125 3.25l-1.359375 6.53125l-2.359375 0zm32.361084 -4.703125l2.296875 0.234375q-0.5 1.703125 -2.28125 3.25q-1.765625 1.53125 -4.234375 1.53125q-1.53125 0 -2.8125 -0.703125q-1.28125 -0.71875 -1.953125 -2.0625q-0.671875 -1.359375 -0.671875 -3.09375q0 -2.265625 1.046875 -4.390625q1.046875 -2.125 2.71875 -3.15625q1.671875 -1.046875 3.609375 -1.046875q2.46875 0 3.9375 1.546875q1.484375 1.53125 1.484375 4.1875q0 1.015625 -0.1875 2.078125l-10.171875 0q-0.046875 0.40625 -0.046875 0.734375q0 1.9375 0.890625 2.96875q0.890625 1.015625 2.171875 1.015625q1.21875 0 2.390625 -0.796875q1.171875 -0.796875 1.8125 -2.296875zm-6.84375 -3.421875l7.765625 0q0.015625 -0.359375 0.015625 -0.515625q0 -1.765625 -0.890625 -2.703125q-0.890625 -0.953125 -2.28125 -0.953125q-1.515625 0 -2.765625 1.046875q-1.234375 1.03125 -1.84375 3.125zm11.528076 8.125l2.890625 -13.828125l2.125 0l-0.5 2.40625q1.390625 -1.40625 2.59375 -2.0625q1.21875 -0.65625 2.484375 -0.65625q1.671875 0 2.625 0.921875q0.953125 0.90625 0.953125 2.421875q0 0.78125 -0.328125 2.421875l-1.765625 8.375l-2.34375 0l1.828125 -8.765625q0.28125 -1.265625 0.28125 -1.875q0 -0.703125 -0.484375 -1.125q-0.46875 -0.4375 -1.375 -0.4375q-1.8125 0 -3.21875 1.3125q-1.40625 1.296875 -2.078125 4.453125l-1.34375 6.4375l-2.34375 0zm20.324951 -1.90625l-0.390625 1.921875q-0.84375 0.21875 -1.640625 0.21875q-1.40625 0 -2.234375 -0.6875q-0.625 -0.515625 -0.625 -1.421875q0 -0.453125 0.328125 -2.09375l1.6875 -8.03125l-1.859375 0l0.375 -1.828125l1.859375 0l0.71875 -3.390625l2.6875 -1.625l-1.046875 5.015625l2.3125 0l-0.390625 1.828125l-2.296875 0l-1.609375 7.640625q-0.296875 1.453125 -0.296875 1.75q0 0.40625 0.234375 0.640625q0.25 0.21875 0.796875 0.21875q0.78125 0 1.390625 -0.15625z"
       fill-rule="nonzero"
       id="path33" />
    <path
       fill="#d0e0e3"
       d="m730.1575 393.19727l0 0c0 -11.886658 9.636047 -21.522736 21.522766 -21.522736l196.2616 0c5.708191 0 11.182556 2.2675781 15.218872 6.3038635c4.036316 4.036316 6.303833 9.510712 6.303833 15.218872l0 86.08838c0 11.886688 -9.636047 21.522766 -21.522705 21.522766l-196.2616 0c-11.886719 0 -21.522766 -9.636078 -21.522766 -21.522766z"
       fill-rule="evenodd"
       id="path35" />
    <path
       stroke="#000000"
       stroke-width="3.0"
       stroke-linejoin="round"
       stroke-linecap="butt"
       d="m730.1575 393.19727l0 0c0 -11.886658 9.636047 -21.522736 21.522766 -21.522736l196.2616 0c5.708191 0 11.182556 2.2675781 15.218872 6.3038635c4.036316 4.036316 6.303833 9.510712 6.303833 15.218872l0 86.08838c0 11.886688 -9.636047 21.522766 -21.522705 21.522766l-196.2616 0c-11.886719 0 -21.522766 -9.636078 -21.522766 -21.522766z"
       fill-rule="evenodd"
       id="path37" />
    <path
       fill="#000000"
       d="m799.77527 384.01334l3.40625 0l0 2.03125q0.671875 -1.03125 1.796875 -1.6875q1.125 -0.65625 2.515625 -0.65625q2.40625 0 4.078125 1.890625q1.6875 1.890625 1.6875 5.265625q0 3.453125 -1.703125 5.375q-1.6875 1.921875 -4.09375 1.921875q-1.140625 0 -2.078125 -0.453125q-0.921875 -0.453125 -1.953125 -1.5625l0 6.96875l-3.65625 0l0 -19.09375zm3.609375 6.6875q0 2.328125 0.921875 3.4375q0.9375 1.109375 2.265625 1.109375q1.265625 0 2.109375 -1.015625q0.859375 -1.03125 0.859375 -3.359375q0 -2.171875 -0.875 -3.21875q-0.875 -1.0625 -2.171875 -1.0625q-1.328125 0 -2.21875 1.046875q-0.890625 1.03125 -0.890625 3.0625zm16.282715 7.140625l-3.671875 0l0 -13.828125l3.40625 0l0 1.96875q0.875 -1.390625 1.5625 -1.828125q0.703125 -0.453125 1.578125 -0.453125q1.25 0 2.421875 0.703125l-1.140625 3.1875q-0.921875 -0.609375 -1.71875 -0.609375q-0.765625 0 -1.296875 0.421875q-0.53125 0.421875 -0.84375 1.53125q-0.296875 1.109375 -0.296875 4.640625l0 4.265625zm6.01416 -7.109375q0 -1.8125 0.890625 -3.515625q0.90625 -1.71875 2.546875 -2.609375q1.65625 -0.90625 3.6875 -0.90625q3.140625 0 5.140625 2.046875q2.0 2.03125 2.0 5.140625q0 3.140625 -2.03125 5.203125q-2.015625 2.0625 -5.078125 2.0625q-1.90625 0 -3.640625 -0.859375q-1.71875 -0.859375 -2.625 -2.515625q-0.890625 -1.65625 -0.890625 -4.046875zm3.75 0.203125q0 2.046875 0.96875 3.140625q0.984375 1.09375 2.421875 1.09375q1.421875 0 2.390625 -1.09375q0.984375 -1.09375 0.984375 -3.171875q0 -2.03125 -0.984375 -3.125q-0.96875 -1.09375 -2.390625 -1.09375q-1.4375 0 -2.421875 1.09375q-0.96875 1.09375 -0.96875 3.15625zm13.29834 -8.796875l0 -3.375l3.671875 0l0 3.375l-3.671875 0zm3.671875 1.875l0 13.40625q0 2.640625 -0.359375 3.71875q-0.34375 1.09375 -1.328125 1.703125q-0.96875 0.609375 -2.5 0.609375q-0.546875 0 -1.1875 -0.09375q-0.625 -0.09375 -1.34375 -0.296875l0.640625 -3.125q0.25 0.046875 0.484375 0.078125q0.21875 0.046875 0.421875 0.046875q0.5625 0 0.90625 -0.25q0.359375 -0.234375 0.46875 -0.578125q0.125 -0.34375 0.125 -2.03125l0 -13.1875l3.671875 0zm11.82782 9.421875l3.640625 0.625q-0.703125 2.0 -2.21875 3.046875q-1.515625 1.046875 -3.796875 1.046875q-3.609375 0 -5.328125 -2.359375q-1.375 -1.890625 -1.375 -4.765625q0 -3.4375 1.796875 -5.375q1.796875 -1.953125 4.546875 -1.953125q3.078125 0 4.859375 2.046875q1.78125 2.03125 1.703125 6.234375l-9.15625 0q0.046875 1.625 0.890625 2.53125q0.84375 0.90625 2.109375 0.90625q0.859375 0 1.4375 -0.46875q0.59375 -0.46875 0.890625 -1.515625zm0.203125 -3.6875q-0.03125 -1.59375 -0.8125 -2.421875q-0.78125 -0.828125 -1.90625 -0.828125q-1.203125 0 -1.984375 0.875q-0.78125 0.875 -0.765625 2.375l5.46875 0zm18.668701 -1.640625l-3.609375 0.65625q-0.1875 -1.09375 -0.828125 -1.640625q-0.640625 -0.546875 -1.671875 -0.546875q-1.359375 0 -2.171875 0.953125q-0.8125 0.9375 -0.8125 3.15625q0 2.453125 0.8125 3.46875q0.828125 1.015625 2.21875 1.015625q1.046875 0 1.703125 -0.59375q0.671875 -0.59375 0.953125 -2.03125l3.578125 0.609375q-0.546875 2.46875 -2.140625 3.734375q-1.59375 1.265625 -4.25 1.265625q-3.03125 0 -4.84375 -1.90625q-1.796875 -1.921875 -1.796875 -5.296875q0 -3.4375 1.796875 -5.34375q1.8125 -1.90625 4.90625 -1.90625q2.515625 0 4.0 1.09375q1.5 1.078125 2.15625 3.3125zm9.106201 -4.09375l0 2.921875l-2.5 0l0 5.5625q0 1.703125 0.0625 1.984375q0.078125 0.28125 0.328125 0.46875q0.265625 0.171875 0.625 0.171875q0.515625 0 1.46875 -0.359375l0.3125 2.84375q-1.265625 0.546875 -2.890625 0.546875q-0.984375 0 -1.78125 -0.328125q-0.796875 -0.328125 -1.171875 -0.859375q-0.359375 -0.53125 -0.5 -1.421875q-0.125 -0.640625 -0.125 -2.578125l0 -6.03125l-1.671875 0l0 -2.921875l1.671875 0l0 -2.734375l3.671875 -2.140625l0 4.875l2.5 0zm1.62677 8.765625l3.546875 -0.4375q0.171875 1.359375 0.90625 2.078125q0.75 0.71875 1.796875 0.71875q1.125 0 1.90625 -0.859375q0.78125 -0.859375 0.78125 -2.328125q0 -1.375 -0.75 -2.171875q-0.734375 -0.8125 -1.8125 -0.8125q-0.703125 0 -1.671875 0.265625l0.40625 -2.96875q1.484375 0.03125 2.265625 -0.640625q0.78125 -0.6875 0.78125 -1.828125q0 -0.953125 -0.578125 -1.53125q-0.578125 -0.578125 -1.53125 -0.578125q-0.921875 0 -1.59375 0.65625q-0.65625 0.65625 -0.8125 1.90625l-3.359375 -0.578125q0.34375 -1.734375 1.046875 -2.765625q0.71875 -1.03125 1.984375 -1.625q1.265625 -0.59375 2.84375 -0.59375q2.703125 0 4.328125 1.71875q1.34375 1.40625 1.34375 3.171875q0 2.515625 -2.75 4.015625q1.640625 0.34375 2.609375 1.578125q0.984375 1.21875 0.984375 2.9375q0 2.515625 -1.828125 4.296875q-1.828125 1.765625 -4.5625 1.765625q-2.59375 0 -4.296875 -1.484375q-1.703125 -1.5 -1.984375 -3.90625z"
       fill-rule="nonzero"
       id="path39" />
    <path
       fill="#000000"
       d="m819.24243 461.84146l-3.65625 -19.078125l2.453125 0l2.21875 11.375q0.609375 3.09375 0.78125 5.0q1.203125 -2.453125 1.96875 -3.890625l6.8125 -12.484375l2.625 0l-10.46875 19.078125l-2.734375 0zm14.563416 -16.40625l0.5625 -2.671875l2.328125 0l-0.546875 2.671875l-2.34375 0zm-3.4375 16.40625l2.890625 -13.828125l2.359375 0l-2.890625 13.828125l-2.359375 0zm6.015869 0l2.890625 -13.828125l2.078125 0l-0.59375 2.828125q1.078125 -1.59375 2.09375 -2.359375q1.015625 -0.78125 2.09375 -0.78125q0.703125 0 1.734375 0.515625l-0.96875 2.1875q-0.609375 -0.453125 -1.34375 -0.453125q-1.234375 0 -2.546875 1.390625q-1.296875 1.375 -2.03125 4.953125l-1.171875 5.546875l-2.234375 0zm14.37677 -1.90625l-0.390625 1.921875q-0.84375 0.21875 -1.640625 0.21875q-1.40625 0 -2.234375 -0.6875q-0.625 -0.515625 -0.625 -1.421875q0 -0.453125 0.328125 -2.09375l1.6875 -8.03125l-1.859375 0l0.375 -1.828125l1.859375 0l0.71875 -3.390625l2.6875 -1.625l-1.046875 5.015625l2.3125 0l-0.390625 1.828125l-2.296875 0l-1.609375 7.640625q-0.296875 1.453125 -0.296875 1.75q0 0.40625 0.234375 0.640625q0.25 0.21875 0.796875 0.21875q0.78125 0 1.390625 -0.15625zm11.343445 -0.59375q-2.5 2.8125 -5.09375 2.8125q-1.609375 0 -2.59375 -0.90625q-0.96875 -0.921875 -0.96875 -2.25q0 -0.875 0.4375 -3.0l1.671875 -7.984375l2.34375 0l-1.84375 8.84375q-0.234375 1.109375 -0.234375 1.71875q0 0.78125 0.46875 1.21875q0.484375 0.4375 1.40625 0.4375q0.984375 0 1.921875 -0.484375q0.953125 -0.484375 1.640625 -1.296875q0.6875 -0.828125 1.109375 -1.953125q0.28125 -0.703125 0.671875 -2.5l1.25 -5.984375l2.34375 0l-2.890625 13.828125l-2.171875 0l0.53125 -2.5zm14.699951 0.78125q-1.21875 1.0625 -2.359375 1.546875q-1.125 0.484375 -2.421875 0.484375q-1.90625 0 -3.078125 -1.125q-1.171875 -1.125 -1.171875 -2.890625q0 -1.15625 0.515625 -2.046875q0.53125 -0.890625 1.40625 -1.421875q0.875 -0.546875 2.140625 -0.78125q0.796875 -0.15625 3.015625 -0.25q2.21875 -0.09375 3.171875 -0.46875q0.28125 -0.953125 0.28125 -1.59375q0 -0.828125 -0.59375 -1.296875q-0.828125 -0.640625 -2.40625 -0.640625q-1.484375 0 -2.421875 0.65625q-0.9375 0.65625 -1.375 1.859375l-2.375 -0.203125q0.71875 -2.0625 2.296875 -3.15625q1.59375 -1.09375 4.0 -1.09375q2.5625 0 4.0625 1.234375q1.140625 0.90625 1.140625 2.359375q0 1.109375 -0.328125 2.5625l-0.765625 3.4375q-0.359375 1.640625 -0.359375 2.671875q0 0.65625 0.28125 1.875l-2.375 0q-0.203125 -0.671875 -0.28125 -1.71875zm0.875 -5.28125q-0.5 0.1875 -1.0625 0.296875q-0.5625 0.109375 -1.890625 0.21875q-2.0625 0.1875 -2.90625 0.46875q-0.84375 0.28125 -1.28125 0.890625q-0.421875 0.609375 -0.421875 1.34375q0 1.0 0.671875 1.640625q0.6875 0.625 1.953125 0.625q1.171875 0 2.25 -0.609375q1.078125 -0.625 1.703125 -1.71875q0.625 -1.109375 0.984375 -3.15625zm4.449951 7.0l3.984375 -19.078125l2.359375 0l-3.984375 19.078125l-2.359375 0z"
       fill-rule="nonzero"
       id="path41" />
    <path
       fill="#000000"
       d="m776.1931 493.84146l3.984375 -19.078125l13.78125 0l-0.453125 2.171875l-11.234375 0l-1.234375 5.9375l10.921875 0l-0.453125 2.171875l-10.9375 0l-1.375 6.640625l12.015625 0l-0.453125 2.15625l-14.5625 0zm17.467041 0l2.890625 -13.828125l2.125 0l-0.5 2.40625q1.390625 -1.40625 2.59375 -2.0625q1.21875 -0.65625 2.484375 -0.65625q1.671875 0 2.625 0.921875q0.953125 0.90625 0.953125 2.421875q0 0.78125 -0.328125 2.421875l-1.765625 8.375l-2.34375 0l1.828125 -8.765625q0.28125 -1.265625 0.28125 -1.875q0 -0.703125 -0.484375 -1.125q-0.46875 -0.4375 -1.375 -0.4375q-1.8125 0 -3.21875 1.3125q-1.40625 1.296875 -2.078125 4.453125l-1.34375 6.4375l-2.34375 0zm18.309265 0l-2.265625 -13.828125l2.296875 0l1.171875 7.625q0.203125 1.25 0.484375 4.0625q0.671875 -1.46875 1.734375 -3.359375l4.625 -8.328125l2.484375 0l-7.921875 13.828125l-2.609375 0zm13.1875 -16.40625l0.5625 -2.671875l2.328125 0l-0.546875 2.671875l-2.34375 0zm-3.4375 16.40625l2.890625 -13.828125l2.359375 0l-2.890625 13.828125l-2.359375 0zm6.01593 0l2.890625 -13.828125l2.078125 0l-0.59375 2.828125q1.078125 -1.59375 2.09375 -2.359375q1.015625 -0.78125 2.09375 -0.78125q0.703125 0 1.734375 0.515625l-0.96875 2.1875q-0.609375 -0.453125 -1.34375 -0.453125q-1.234375 0 -2.546875 1.390625q-1.296875 1.375 -2.03125 4.953125l-1.171875 5.546875l-2.234375 0zm9.28302 -5.25q0 -4.046875 2.390625 -6.703125q1.96875 -2.1875 5.15625 -2.1875q2.5 0 4.015625 1.5625q1.53125 1.5625 1.53125 4.21875q0 2.390625 -0.96875 4.4375q-0.953125 2.046875 -2.734375 3.140625q-1.765625 1.09375 -3.734375 1.09375q-1.609375 0 -2.9375 -0.6875q-1.328125 -0.6875 -2.03125 -1.953125q-0.6875 -1.265625 -0.6875 -2.921875zm2.359375 -0.234375q0 1.953125 0.9375 2.96875q0.9375 1.0 2.375 1.0q0.765625 0 1.5 -0.296875q0.75 -0.3125 1.375 -0.9375q0.640625 -0.625 1.09375 -1.421875q0.453125 -0.796875 0.71875 -1.71875q0.40625 -1.296875 0.40625 -2.484375q0 -1.875 -0.953125 -2.90625q-0.9375 -1.03125 -2.359375 -1.03125q-1.109375 0 -2.03125 0.53125q-0.90625 0.515625 -1.640625 1.53125q-0.734375 1.015625 -1.078125 2.375q-0.34375 1.34375 -0.34375 2.390625zm12.059265 5.484375l2.890625 -13.828125l2.125 0l-0.5 2.40625q1.390625 -1.40625 2.59375 -2.0625q1.21875 -0.65625 2.484375 -0.65625q1.671875 0 2.625 0.921875q0.95318604 0.90625 0.95318604 2.421875q0 0.78125 -0.32818604 2.421875l-1.765625 8.375l-2.34375 0l1.828125 -8.765625q0.28125 -1.265625 0.28125 -1.875q0 -0.703125 -0.484375 -1.125q-0.46875 -0.4375 -1.375 -0.4375q-1.8125 0 -3.21875 1.3125q-1.40625 1.296875 -2.078125 4.453125l-1.34375 6.4375l-2.34375 0zm14.809326 0l2.890625 -13.828125l2.359375 0l-0.484375 2.28125q1.3125 -1.46875 2.34375 -2.03125q1.03125 -0.5625 2.25 -0.5625q1.28125 0 2.140625 0.6875q0.875 0.6875 1.140625 1.90625q1.0625 -1.296875 2.21875 -1.9375q1.171875 -0.65625 2.46875 -0.65625q1.71875 0 2.578125 0.828125q0.875 0.8125 0.875 2.296875q0 0.640625 -0.296875 2.109375l-1.859375 8.90625l-2.359375 0l1.90625 -9.140625q0.25 -1.109375 0.25 -1.59375q0 -0.6875 -0.4375 -1.078125q-0.421875 -0.390625 -1.203125 -0.390625q-1.0625 0 -2.15625 0.640625q-1.09375 0.640625 -1.703125 1.6875q-0.59375 1.03125 -1.046875 3.171875l-1.40625 6.703125l-2.359375 0l1.953125 -9.328125q0.203125 -0.953125 0.203125 -1.359375q0 -0.671875 -0.421875 -1.09375q-0.421875 -0.421875 -1.09375 -0.421875q-1.015625 0 -2.109375 0.640625q-1.09375 0.640625 -1.796875 1.78125q-0.6875 1.140625 -1.125 3.25l-1.359375 6.53125l-2.359375 0zm32.361145 -4.703125l2.296875 0.234375q-0.5 1.703125 -2.28125 3.25q-1.765625 1.53125 -4.234375 1.53125q-1.53125 0 -2.8125 -0.703125q-1.28125 -0.71875 -1.953125 -2.0625q-0.671875 -1.359375 -0.671875 -3.09375q0 -2.265625 1.046875 -4.390625q1.046875 -2.125 2.71875 -3.15625q1.671875 -1.046875 3.609375 -1.046875q2.46875 0 3.9375 1.546875q1.484375 1.53125 1.484375 4.1875q0 1.015625 -0.1875 2.078125l-10.171875 0q-0.046875 0.40625 -0.046875 0.734375q0 1.9375 0.890625 2.96875q0.890625 1.015625 2.171875 1.015625q1.21875 0 2.390625 -0.796875q1.171875 -0.796875 1.8125 -2.296875zm-6.84375 -3.421875l7.765625 0q0.015625 -0.359375 0.015625 -0.515625q0 -1.765625 -0.890625 -2.703125q-0.890625 -0.953125 -2.28125 -0.953125q-1.515625 0 -2.765625 1.046875q-1.234375 1.03125 -1.84375 3.125zm11.528076 8.125l2.890625 -13.828125l2.125 0l-0.5 2.40625q1.390625 -1.40625 2.59375 -2.0625q1.21875 -0.65625 2.484375 -0.65625q1.671875 0 2.625 0.921875q0.953125 0.90625 0.953125 2.421875q0 0.78125 -0.328125 2.421875l-1.765625 8.375l-2.34375 0l1.828125 -8.765625q0.28125 -1.265625 0.28125 -1.875q0 -0.703125 -0.484375 -1.125q-0.46875 -0.4375 -1.375 -0.4375q-1.8125 0 -3.21875 1.3125q-1.40625 1.296875 -2.078125 4.453125l-1.34375 6.4375l-2.34375 0zm20.32489 -1.90625l-0.390625 1.921875q-0.84375 0.21875 -1.640625 0.21875q-1.40625 0 -2.234375 -0.6875q-0.625 -0.515625 -0.625 -1.421875q0 -0.453125 0.328125 -2.09375l1.6875 -8.03125l-1.859375 0l0.375 -1.828125l1.859375 0l0.71875 -3.390625l2.6875 -1.625l-1.046875 5.015625l2.3125 0l-0.390625 1.828125l-2.296875 0l-1.609375 7.640625q-0.296875 1.453125 -0.296875 1.75q0 0.40625 0.234375 0.640625q0.25 0.21875 0.796875 0.21875q0.78125 0 1.390625 -0.15625z"
       fill-rule="nonzero"
       id="path43" />
    <path
       fill="#000000"
       fill-opacity="0.0"
       d="m488.6719 136.94489l-352.31494 234.74014"
       fill-rule="evenodd"
       id="path45" />
    <path
       stroke="#000000"
       stroke-width="3.0"
       stroke-linejoin="round"
       stroke-linecap="butt"
       d="m488.6719 136.94489l-352.31494 234.74014"
       fill-rule="evenodd"
       id="path47" />
    <path
       fill="#000000"
       fill-opacity="0.0"
       d="m488.6719 371.67453l0 -234.74014"
       fill-rule="evenodd"
       id="path49" />
    <path
       stroke="#000000"
       stroke-width="3.0"
       stroke-linejoin="round"
       stroke-linecap="butt"
       d="m488.6719 371.67453l0 -234.74014"
       fill-rule="evenodd"
       id="path51" />
    <path
       fill="#000000"
       fill-opacity="0.0"
       d="m849.81104 371.67453l-361.13388 -234.74014"
       fill-rule="evenodd"
       id="path53" />
    <path
       stroke="#000000"
       stroke-width="3.0"
       stroke-linejoin="round"
       stroke-linecap="butt"
       d="m849.81104 371.67453l-361.13388 -234.74014"
       fill-rule="evenodd"
       id="path55" />
  </g>
</svg>
