<?xml version="1.0" encoding="UTF-8" standalone="no"?>
<svg
   xmlns:dc="http://purl.org/dc/elements/1.1/"
   xmlns:cc="http://creativecommons.org/ns#"
   xmlns:rdf="http://www.w3.org/1999/02/22-rdf-syntax-ns#"
   xmlns:svg="http://www.w3.org/2000/svg"
   xmlns="http://www.w3.org/2000/svg"
   xmlns:sodipodi="http://sodipodi.sourceforge.net/DTD/sodipodi-0.dtd"
   xmlns:inkscape="http://www.inkscape.org/namespaces/inkscape"
   version="1.1"
   viewBox="0 0 293.23621 488.50136"
   stroke-miterlimit="10"
   id="svg117"
   sodipodi:docname="venv.svg"
   width="293.23621"
   height="488.50134"
   style="fill:none;stroke:none;stroke-linecap:square;stroke-miterlimit:10"
   inkscape:version="0.92.3 (2405546, 2018-03-11)">
  <metadata
     id="metadata123">
    <rdf:RDF>
      <cc:Work
         rdf:about="">
        <dc:format>image/svg+xml</dc:format>
        <dc:type
           rdf:resource="http://purl.org/dc/dcmitype/StillImage" />
        <dc:title></dc:title>
      </cc:Work>
    </rdf:RDF>
  </metadata>
  <defs
     id="defs121" />
  <sodipodi:namedview
     pagecolor="#ffffff"
     bordercolor="#666666"
     borderopacity="1"
     objecttolerance="10"
     gridtolerance="10"
     guidetolerance="10"
     inkscape:pageopacity="0"
     inkscape:pageshadow="2"
     inkscape:window-width="2286"
     inkscape:window-height="1189"
     id="namedview119"
     showgrid="false"
     inkscape:zoom="0.44164575"
     inkscape:cx="-315.61621"
     inkscape:cy="-276.61931"
     inkscape:window-x="0"
     inkscape:window-y="205"
     inkscape:window-maximized="0"
     inkscape:current-layer="g115"
     fit-margin-top="0"
     fit-margin-left="0"
     fit-margin-right="0"
     fit-margin-bottom="0" />
  <clipPath
     id="p.0">
    <path
       d="M 0,0 H 2247.9055 V 515.3832 H 0 Z"
       id="path2"
       inkscape:connector-curvature="0"
       style="clip-rule:nonzero" />
  </clipPath>
  <g
     clip-path="url(#p.0)"
     id="g115"
     transform="translate(-1907.4948,-13.807087)">
    <path
       d="M 0,0 H 2247.9055 V 515.3832 H 0 Z"
       id="path5"
       inkscape:connector-curvature="0"
       style="fill:#000000;fill-opacity:0;fill-rule:evenodd" />
    <path
       d="m 1908.9948,35.58046 v 0 c 0,-11.196676 9.0767,-20.273373 20.2733,-20.273373 h 249.6895 c 5.3769,0 10.5334,2.135939 14.3354,5.937933 3.802,3.801994 5.938,8.958605 5.938,14.33544 v 81.09105 c 0,11.19668 -9.0767,20.27338 -20.2734,20.27338 h -249.6895 c -11.1966,0 -20.2733,-9.0767 -20.2733,-20.27338 z"
       id="path93"
       inkscape:connector-curvature="0"
       style="fill:#cfe2f3;fill-rule:evenodd" />
    <path
       d="m 1908.9948,35.58046 v 0 c 0,-11.196676 9.0767,-20.273373 20.2733,-20.273373 h 249.6895 c 5.3769,0 10.5334,2.135939 14.3354,5.937933 3.802,3.801994 5.938,8.958605 5.938,14.33544 v 81.09105 c 0,11.19668 -9.0767,20.27338 -20.2734,20.27338 h -249.6895 c -11.1966,0 -20.2733,-9.0767 -20.2733,-20.27338 z"
       id="path95"
       inkscape:connector-curvature="0"
       style="fill-rule:evenodd;stroke:#000000;stroke-width:3;stroke-linecap:butt;stroke-linejoin:round" />
    <path
       d="M 2000.0657,68.125984 V 44.266605 h 7.7344 q 4.3906,0 5.7344,0.359375 2.0468,0.53125 3.4218,2.34375 1.3907,1.796875 1.3907,4.640625 0,2.1875 -0.7969,3.6875 -0.7969,1.5 -2.0313,2.359375 -1.2343,0.84375 -2.5,1.125 -1.7187,0.34375 -5,0.34375 h -3.1406 v 9.000004 z m 4.8125,-19.828129 v 6.78125 h 2.6406 q 2.8438,0 3.7969,-0.375 0.9688,-0.375 1.5156,-1.171875 0.5469,-0.796875 0.5469,-1.859375 0,-1.296875 -0.7656,-2.140625 -0.7656,-0.859375 -1.9375,-1.0625 -0.8594,-0.171875 -3.4688,-0.171875 z m 15.2296,2.546875 h 4.8594 l 4.1406,12.265625 4.0313,-12.265625 h 4.7343 l -6.1093,16.625004 -1.0782,3.015625 q -0.6093,1.515625 -1.1562,2.3125 -0.5469,0.796875 -1.25,1.28125 -0.7031,0.5 -1.75,0.78125 -1.0313,0.28125 -2.3281,0.28125 -1.3125,0 -2.5938,-0.28125 l -0.4062,-3.578125 q 1.0781,0.21875 1.9375,0.21875 1.5937,0 2.3593,-0.9375 0.7657,-0.9375 1.1719,-2.390625 z m 28.6137,0 v 3.640625 h -3.125 v 6.96875 q 0,2.109375 0.094,2.46875 0.094,0.343754 0.4063,0.578129 0.3125,0.21875 0.7812,0.21875 0.625,0 1.8281,-0.4375 l 0.3907,3.546875 q -1.5938,0.6875 -3.6094,0.6875 -1.2344,0 -2.2344,-0.40625 -0.9844,-0.421875 -1.4531,-1.078125 -0.4688,-0.65625 -0.6406,-1.78125 -0.1407,-0.796875 -0.1407,-3.234379 v -7.53125 h -2.1093 V 50.84473 h 2.1093 v -3.4375 l 4.5782,-2.671875 v 6.109375 z m 7.7392,-6.578125 v 8.78125 q 2.2031,-2.59375 5.2813,-2.59375 1.5781,0 2.8437,0.59375 1.2813,0.578125 1.9219,1.5 0.6406,0.90625 0.875,2.015625 0.2344,1.09375 0.2344,3.421875 v 10.140629 h -4.5625 V 59.00098 q 0,-2.71875 -0.2657,-3.453125 -0.2656,-0.734375 -0.9218,-1.15625 -0.6563,-0.4375 -1.6563,-0.4375 -1.1406,0 -2.0312,0.5625 -0.8907,0.546875 -1.3125,1.65625 -0.4063,1.109375 -0.4063,3.296875 v 8.656254 h -4.5781 V 44.266605 Z m 14.7332,14.96875 q 0,-2.265625 1.125,-4.390625 1.125,-2.140625 3.1875,-3.265625 2.0625,-1.125 4.5937,-1.125 3.9219,0 6.4219,2.546875 2.5156,2.546875 2.5156,6.4375 0,3.921875 -2.5312,6.500004 -2.5313,2.578125 -6.375,2.578125 -2.375,0 -4.5313,-1.0625 -2.1562,-1.078125 -3.2812,-3.15625 -1.125,-2.078129 -1.125,-5.062504 z m 4.6875,0.25 q 0,2.578125 1.2187,3.9375 1.2344,1.359379 3.0156,1.359379 1.7969,0 3,-1.359379 1.2188,-1.359375 1.2188,-3.96875 0,-2.546875 -1.2188,-3.90625 -1.2031,-1.375 -3,-1.375 -1.7812,0 -3.0156,1.375 -1.2187,1.359375 -1.2187,3.9375 z m 32.4519,8.640629 h -4.5625 V 59.31348 q 0,-2.8125 -0.2969,-3.625 -0.2969,-0.828125 -0.9531,-1.28125 -0.6563,-0.453125 -1.5938,-0.453125 -1.1875,0 -2.1406,0.65625 -0.9375,0.640625 -1.2812,1.71875 -0.3438,1.078125 -0.3438,3.96875 v 7.828129 h -4.5781 V 50.84473 h 4.25 v 2.53125 q 2.2656,-2.921875 5.6875,-2.921875 1.5156,0 2.7656,0.546875 1.2656,0.546875 1.9063,1.390625 0.6406,0.84375 0.8906,1.921875 0.25,1.078125 0.25,3.078125 z"
       id="path97"
       inkscape:connector-curvature="0"
       style="fill:#000000;fill-rule:nonzero" />
    <path
       d="M 1968.4358,108.12598 V 84.266609 h 4.8125 v 23.859371 z m 25.0878,0 h -4.5625 v -8.812496 q 0,-2.8125 -0.2969,-3.625 -0.2969,-0.828125 -0.9531,-1.28125 -0.6563,-0.453125 -1.5938,-0.453125 -1.1875,0 -2.1406,0.65625 -0.9375,0.640625 -1.2813,1.71875 -0.3437,1.078125 -0.3437,3.968751 v 7.82812 h -4.5781 V 90.844734 h 4.25 v 2.53125 q 2.2656,-2.921875 5.6875,-2.921875 1.5156,0 2.7656,0.546875 1.2656,0.546875 1.9062,1.390625 0.6407,0.84375 0.8907,1.921875 0.25,1.078125 0.25,3.078125 z m 3.03,-4.9375 4.5937,-0.6875 q 0.2813,1.32813 1.1719,2.03125 0.9063,0.6875 2.5156,0.6875 1.7813,0 2.6719,-0.65625 0.5938,-0.45312 0.5938,-1.21875 0,-0.53125 -0.3125,-0.85937 -0.3438,-0.32813 -1.5313,-0.60938 -5.5312,-1.21875 -7.0156,-2.234371 -2.0469,-1.390625 -2.0469,-3.890625 0,-2.234375 1.7656,-3.765625 1.7813,-1.53125 5.5,-1.53125 3.5469,0 5.2657,1.15625 1.7343,1.15625 2.3906,3.421875 l -4.3125,0.796875 q -0.2813,-1.015625 -1.0625,-1.546875 -0.7656,-0.546875 -2.2031,-0.546875 -1.7969,0 -2.5782,0.515625 -0.5312,0.359375 -0.5312,0.921875 0,0.484375 0.4687,0.828125 0.6094,0.453125 4.2657,1.28125 3.6562,0.828125 5.1093,2.046875 1.4219,1.218751 1.4219,3.390621 0,2.375 -1.9844,4.09375 -1.9843,1.70313 -5.875,1.70313 -3.5312,0 -5.5937,-1.42188 -2.0469,-1.4375 -2.6875,-3.90625 z m 28.0668,-12.343746 v 3.640625 h -3.125 v 6.968751 q 0,2.10937 0.094,2.46875 0.094,0.34375 0.4063,0.57812 0.3125,0.21875 0.7812,0.21875 0.625,0 1.8281,-0.4375 l 0.3907,3.54688 q -1.5938,0.6875 -3.6094,0.6875 -1.2344,0 -2.2344,-0.40625 -0.9844,-0.42188 -1.4531,-1.07813 -0.4688,-0.65625 -0.6406,-1.78125 -0.1407,-0.79687 -0.1407,-3.23437 v -7.531251 h -2.1093 v -3.640625 h 2.1093 v -3.4375 l 4.5782,-2.671875 v 6.109375 z m 6.5985,5.265625 -4.1563,-0.75 q 0.7032,-2.5 2.4063,-3.703125 1.7187,-1.203125 5.0781,-1.203125 3.0625,0 4.5625,0.734375 1.5,0.71875 2.1094,1.828125 0.6094,1.109375 0.6094,4.09375 l -0.047,5.343751 q 0,2.26562 0.2187,3.35937 0.2188,1.07813 0.8125,2.3125 h -4.5156 q -0.1875,-0.45312 -0.4375,-1.34375 -0.125,-0.40625 -0.1719,-0.54687 -1.1718,1.14062 -2.5,1.71875 -1.3281,0.5625 -2.8437,0.5625 -2.6719,0 -4.2188,-1.4375 -1.5312,-1.45313 -1.5312,-3.67188 0,-1.46875 0.7031,-2.60937 0.7031,-1.156251 1.9531,-1.765626 1.2657,-0.609375 3.6407,-1.0625 3.2031,-0.59375 4.4375,-1.125 v -0.453125 q 0,-1.3125 -0.6563,-1.875 -0.6406,-0.5625 -2.4531,-0.5625 -1.2188,0 -1.9063,0.484375 -0.6718,0.46875 -1.0937,1.671875 z m 6.1094,3.71875 q -0.875,0.296871 -2.7813,0.703121 -1.9062,0.40625 -2.4844,0.79688 -0.8906,0.625 -0.8906,1.60937 0,0.95313 0.7031,1.65625 0.7188,0.70313 1.8282,0.70313 1.2343,0 2.3593,-0.8125 0.8282,-0.625 1.0938,-1.51563 0.1719,-0.59375 0.1719,-2.23437 z m 9.0042,8.296871 V 84.266609 h 4.5782 v 23.859371 z m 9.2598,0 V 84.266609 h 4.5781 v 23.859371 z m 12.6814,-12.015621 -4.1563,-0.75 q 0.7032,-2.5 2.4063,-3.703125 1.7187,-1.203125 5.0781,-1.203125 3.0625,0 4.5625,0.734375 1.5,0.71875 2.1094,1.828125 0.6094,1.109375 0.6094,4.09375 l -0.047,5.343751 q 0,2.26562 0.2187,3.35937 0.2188,1.07813 0.8125,2.3125 h -4.5156 q -0.1875,-0.45312 -0.4375,-1.34375 -0.125,-0.40625 -0.1719,-0.54687 -1.1718,1.14062 -2.5,1.71875 -1.3281,0.5625 -2.8437,0.5625 -2.6719,0 -4.2188,-1.4375 -1.5312,-1.45313 -1.5312,-3.67188 0,-1.46875 0.7031,-2.60937 0.7031,-1.156251 1.9531,-1.765626 1.2657,-0.609375 3.6407,-1.0625 3.2031,-0.59375 4.4375,-1.125 v -0.453125 q 0,-1.3125 -0.6563,-1.875 -0.6406,-0.5625 -2.4531,-0.5625 -1.2188,0 -1.9063,0.484375 -0.6718,0.46875 -1.0937,1.671875 z m 6.1094,3.71875 q -0.875,0.296871 -2.7813,0.703121 -1.9062,0.40625 -2.4844,0.79688 -0.8906,0.625 -0.8906,1.60937 0,0.95313 0.7031,1.65625 0.7188,0.70313 1.8282,0.70313 1.2343,0 2.3593,-0.8125 0.8282,-0.625 1.0938,-1.51563 0.1719,-0.59375 0.1719,-2.23437 z m 16.9262,-8.984375 v 3.640625 h -3.125 v 6.968751 q 0,2.10937 0.094,2.46875 0.094,0.34375 0.4062,0.57812 0.3125,0.21875 0.7813,0.21875 0.625,0 1.8281,-0.4375 l 0.3906,3.54688 q -1.5937,0.6875 -3.6093,0.6875 -1.2344,0 -2.2344,-0.40625 -0.9844,-0.42188 -1.4531,-1.07813 -0.4688,-0.65625 -0.6407,-1.78125 -0.1406,-0.79687 -0.1406,-3.23437 v -7.531251 h -2.1094 v -3.640625 h 2.1094 v -3.4375 l 4.5781,-2.671875 v 6.109375 z m 3.1765,-2.34375 v -4.234375 h 4.5782 v 4.234375 z m 0,19.624996 V 90.844734 h 4.5782 v 17.281246 z m 8.1973,-8.890621 q 0,-2.265625 1.125,-4.390625 1.125,-2.140625 3.1875,-3.265625 2.0625,-1.125 4.5938,-1.125 3.9218,0 6.4218,2.546875 2.5157,2.546875 2.5157,6.4375 0,3.921876 -2.5313,6.499996 -2.5312,2.57813 -6.375,2.57813 -2.375,0 -4.5312,-1.0625 -2.1563,-1.07813 -3.2813,-3.15625 -1.125,-2.07813 -1.125,-5.062501 z m 4.6875,0.25 q 0,2.578121 1.2188,3.937501 1.2343,1.35937 3.0156,1.35937 1.7969,0 3,-1.35937 1.2187,-1.35938 1.2187,-3.968751 0,-2.546875 -1.2187,-3.90625 -1.2031,-1.375 -3,-1.375 -1.7813,0 -3.0156,1.375 -1.2188,1.359375 -1.2188,3.9375 z m 32.4519,8.640621 h -4.5625 v -8.812496 q 0,-2.8125 -0.2969,-3.625 -0.2968,-0.828125 -0.9531,-1.28125 -0.6562,-0.453125 -1.5937,-0.453125 -1.1875,0 -2.1407,0.65625 -0.9375,0.640625 -1.2812,1.71875 -0.3438,1.078125 -0.3438,3.968751 v 7.82812 h -4.5781 V 90.844734 h 4.25 v 2.53125 q 2.2656,-2.921875 5.6875,-2.921875 1.5156,0 2.7656,0.546875 1.2657,0.546875 1.9063,1.390625 0.6406,0.84375 0.8906,1.921875 0.25,1.078125 0.25,3.078125 z"
       id="path99"
       inkscape:connector-curvature="0"
       style="fill:#000000;fill-rule:nonzero" />
    <path
       d="m 1924.0499,393.19727 v 0 c 0,-11.88666 9.636,-21.52274 21.5227,-21.52274 h 217.0804 c 5.7083,0 11.1827,2.26758 15.219,6.30387 4.0362,4.03631 6.3037,9.51071 6.3037,15.21887 v 86.08838 c 0,11.88669 -9.6359,21.52277 -21.5227,21.52277 h -217.0804 c -11.8867,0 -21.5227,-9.63608 -21.5227,-21.52277 z"
       id="path101"
       inkscape:connector-curvature="0"
       style="fill:#d0e0e3;fill-rule:evenodd" />
    <path
       d="m 1924.0499,393.19727 v 0 c 0,-11.88666 9.636,-21.52274 21.5227,-21.52274 h 217.0804 c 5.7083,0 11.1827,2.26758 15.219,6.30387 4.0362,4.03631 6.3037,9.51071 6.3037,15.21887 v 86.08838 c 0,11.88669 -9.6359,21.52277 -21.5227,21.52277 h -217.0804 c -11.8867,0 -21.5227,-9.63608 -21.5227,-21.52277 z"
       id="path103"
       inkscape:connector-curvature="0"
       style="fill-rule:evenodd;stroke:#000000;stroke-width:3;stroke-linecap:butt;stroke-linejoin:round" />
    <path
       d="m 2006.8794,384.01334 h 3.375 v 1.89063 q 1.7969,-2.20313 4.2969,-2.20313 1.3281,0 2.2969,0.54688 0.9843,0.54687 1.6093,1.65625 0.9219,-1.10938 1.9688,-1.65625 1.0625,-0.54688 2.25,-0.54688 1.5312,0 2.5781,0.625 1.0625,0.60938 1.5781,1.8125 0.375,0.89063 0.375,2.85938 v 8.84375 h -3.6562 v -7.90625 q 0,-2.04688 -0.375,-2.65625 -0.5156,-0.78125 -1.5625,-0.78125 -0.7656,0 -1.4531,0.46875 -0.6719,0.46875 -0.9688,1.375 -0.2969,0.90625 -0.2969,2.85937 v 6.64063 h -3.6562 v -7.57813 q 0,-2.01562 -0.2031,-2.59375 -0.1875,-0.59375 -0.6094,-0.875 -0.4063,-0.29687 -1.1094,-0.29687 -0.8437,0 -1.5156,0.46875 -0.6719,0.45312 -0.9688,1.3125 -0.2968,0.85937 -0.2968,2.84375 v 6.71875 h -3.6563 z m 22.2485,0 h 3.8907 l 3.2968,9.8125 3.2344,-9.8125 h 3.7813 l -4.875,13.3125 -0.875,2.40625 q -0.4844,1.20313 -0.9219,1.84375 -0.4375,0.64063 -1,1.03125 -0.5625,0.40625 -1.3906,0.625 -0.8282,0.21875 -1.8594,0.21875 -1.0625,0 -2.0781,-0.21875 l -0.3282,-2.85937 q 0.8594,0.15625 1.5469,0.15625 1.2813,0 1.8906,-0.75 0.6094,-0.73438 0.9375,-1.90625 z m 16.1375,8.73438 v -3.65625 h 7.1875 v 3.65625 z m 9.1892,-8.73438 h 3.4062 v 2.03125 q 0.6719,-1.03125 1.7969,-1.6875 1.125,-0.65625 2.5156,-0.65625 2.4063,0 4.0782,1.89063 1.6875,1.89062 1.6875,5.26562 0,3.45313 -1.7032,5.375 -1.6875,1.92188 -4.0937,1.92188 -1.1406,0 -2.0781,-0.45313 -0.9219,-0.45312 -1.9532,-1.5625 v 6.96875 h -3.6562 z m 3.6094,6.6875 q 0,2.32813 0.9218,3.4375 0.9375,1.10938 2.2657,1.10938 1.2656,0 2.1093,-1.01563 0.8594,-1.03125 0.8594,-3.35937 0,-2.17188 -0.875,-3.21875 -0.875,-1.0625 -2.1719,-1.0625 -1.3281,0 -2.2187,1.04687 -0.8906,1.03125 -0.8906,3.0625 z m 16.2827,7.14063 h -3.6719 v -13.82813 h 3.4063 v 1.96875 q 0.875,-1.39062 1.5625,-1.82812 0.7031,-0.45313 1.5781,-0.45313 1.25,0 2.4219,0.70313 l -1.1407,3.1875 q -0.9218,-0.60938 -1.7187,-0.60938 -0.7656,0 -1.2969,0.42188 -0.5312,0.42187 -0.8437,1.53125 -0.2969,1.10937 -0.2969,4.64062 z m 6.0141,-7.10938 q 0,-1.8125 0.8907,-3.51562 0.9062,-1.71875 2.5468,-2.60938 1.6563,-0.90625 3.6875,-0.90625 3.1407,0 5.1407,2.04688 2,2.03125 2,5.14062 0,3.14063 -2.0313,5.20313 -2.0156,2.0625 -5.0781,2.0625 -1.9063,0 -3.6406,-0.85938 -1.7188,-0.85937 -2.625,-2.51562 -0.8907,-1.65625 -0.8907,-4.04688 z m 3.75,0.20313 q 0,2.04687 0.9688,3.14062 0.9844,1.09375 2.4219,1.09375 1.4218,0 2.3906,-1.09375 0.9844,-1.09375 0.9844,-3.17187 0,-2.03125 -0.9844,-3.125 -0.9688,-1.09375 -2.3906,-1.09375 -1.4375,0 -2.4219,1.09375 -0.9688,1.09375 -0.9688,3.15625 z m 13.2984,-8.79688 v -3.375 h 3.6719 v 3.375 z m 3.6719,1.875 v 13.40625 q 0,2.64063 -0.3594,3.71875 -0.3438,1.09375 -1.3281,1.70313 -0.9688,0.60937 -2.5,0.60937 -0.5469,0 -1.1875,-0.0937 -0.625,-0.0937 -1.3438,-0.29687 l 0.6406,-3.125 q 0.25,0.0469 0.4844,0.0781 0.2188,0.0469 0.4219,0.0469 0.5625,0 0.9062,-0.25 0.3594,-0.23438 0.4688,-0.57813 0.125,-0.34375 0.125,-2.03125 v -13.1875 z"
       id="path105"
       inkscape:connector-curvature="0"
       style="fill:#000000;fill-rule:nonzero" />
    <path
       d="m 2023.5443,461.84146 -3.6562,-19.07813 h 2.4531 l 2.2187,11.375 q 0.6094,3.09375 0.7813,5 1.2031,-2.45312 1.9687,-3.89062 l 6.8125,-12.48438 h 2.625 l -10.4687,19.07813 z m 14.5634,-16.40625 0.5625,-2.67188 h 2.3281 l -0.5469,2.67188 z m -3.4375,16.40625 2.8906,-13.82813 h 2.3594 l -2.8907,13.82813 z m 6.0158,0 2.8906,-13.82813 h 2.0782 l -0.5938,2.82813 q 1.0781,-1.59375 2.0938,-2.35938 1.0156,-0.78125 2.0937,-0.78125 0.7031,0 1.7344,0.51563 l -0.9688,2.1875 q -0.6093,-0.45313 -1.3437,-0.45313 -1.2344,0 -2.5469,1.39063 -1.2969,1.375 -2.0312,4.95312 l -1.1719,5.54688 z m 14.3767,-1.90625 -0.3906,1.92187 q -0.8437,0.21875 -1.6406,0.21875 -1.4063,0 -2.2344,-0.6875 -0.625,-0.51562 -0.625,-1.42187 0,-0.45313 0.3281,-2.09375 l 1.6875,-8.03125 h -1.8593 l 0.375,-1.82813 h 1.8593 l 0.7188,-3.39062 2.6875,-1.625 -1.0469,5.01562 h 2.3125 l -0.3906,1.82813 h -2.2969 l -1.6094,7.64062 q -0.2968,1.45313 -0.2968,1.75 0,0.40625 0.2343,0.64063 0.25,0.21875 0.7969,0.21875 0.7813,0 1.3906,-0.15625 z m 11.3435,-0.59375 q -2.5,2.8125 -5.0937,2.8125 -1.6094,0 -2.5938,-0.90625 -0.9687,-0.92188 -0.9687,-2.25 0,-0.875 0.4375,-3 l 1.6719,-7.98438 h 2.3437 l -1.8437,8.84375 q -0.2344,1.10938 -0.2344,1.71875 0,0.78125 0.4687,1.21875 0.4844,0.4375 1.4063,0.4375 0.9844,0 1.9219,-0.48437 0.9531,-0.48438 1.6406,-1.29688 0.6875,-0.82812 1.1094,-1.95312 0.2812,-0.70313 0.6718,-2.5 l 1.25,-5.98438 h 2.3438 l -2.8906,13.82813 h -2.1719 z m 14.7,0.78125 q -1.2188,1.0625 -2.3594,1.54687 -1.125,0.48438 -2.4219,0.48438 -1.9062,0 -3.0781,-1.125 -1.1719,-1.125 -1.1719,-2.89063 0,-1.15625 0.5157,-2.04687 0.5312,-0.89063 1.4062,-1.42188 0.875,-0.54687 2.1406,-0.78125 0.7969,-0.15625 3.0157,-0.25 2.2187,-0.0937 3.1718,-0.46875 0.2813,-0.95312 0.2813,-1.59375 0,-0.82812 -0.5938,-1.29687 -0.8281,-0.64063 -2.4062,-0.64063 -1.4844,0 -2.4219,0.65625 -0.9375,0.65625 -1.375,1.85938 l -2.375,-0.20313 q 0.7188,-2.0625 2.2969,-3.15625 1.5937,-1.09375 4,-1.09375 2.5625,0 4.0625,1.23438 1.1406,0.90625 1.1406,2.35937 0,1.10938 -0.3281,2.5625 l -0.7656,3.4375 q -0.3594,1.64063 -0.3594,2.67188 0,0.65625 0.2812,1.875 h -2.375 q -0.2031,-0.67188 -0.2812,-1.71875 z m 0.875,-5.28125 q -0.5,0.1875 -1.0625,0.29687 -0.5625,0.10938 -1.8906,0.21875 -2.0625,0.1875 -2.9063,0.46875 -0.8437,0.28125 -1.2812,0.89063 -0.4219,0.60937 -0.4219,1.34375 0,1 0.6719,1.64062 0.6875,0.625 1.9531,0.625 1.1719,0 2.25,-0.60937 1.0781,-0.625 1.7031,-1.71875 0.625,-1.10938 0.9844,-3.15625 z m 4.4499,7 3.9844,-19.07813 h 2.3594 l -3.9844,19.07813 z"
       id="path107"
       inkscape:connector-curvature="0"
       style="fill:#000000;fill-rule:nonzero" />
    <path
       d="m 1980.495,493.84146 3.9844,-19.07813 h 13.7812 l -0.4531,2.17188 h -11.2344 l -1.2344,5.9375 h 10.9219 l -0.4531,2.17187 H 1984.87 l -1.375,6.64063 h 12.0156 l -0.4531,2.15625 z m 17.4669,0 2.8906,-13.82813 h 2.125 l -0.5,2.40625 q 1.3907,-1.40625 2.5938,-2.0625 1.2187,-0.65625 2.4844,-0.65625 1.6718,0 2.625,0.92188 0.9531,0.90625 0.9531,2.42187 0,0.78125 -0.3281,2.42188 l -1.7657,8.375 h -2.3437 l 1.8281,-8.76563 q 0.2813,-1.26562 0.2813,-1.875 0,-0.70312 -0.4844,-1.125 -0.4688,-0.4375 -1.375,-0.4375 -1.8125,0 -3.2188,1.3125 -1.4062,1.29688 -2.0781,4.45313 l -1.3437,6.4375 z m 18.3093,0 -2.2656,-13.82813 h 2.2969 l 1.1719,7.625 q 0.2031,1.25 0.4843,4.0625 0.6719,-1.46875 1.7344,-3.35937 l 4.625,-8.32813 h 2.4844 l -7.9219,13.82813 z m 13.1875,-16.40625 0.5625,-2.67188 h 2.3282 l -0.5469,2.67188 z m -3.4375,16.40625 2.8907,-13.82813 h 2.3593 l -2.8906,13.82813 z m 6.016,0 2.8907,-13.82813 h 2.0781 l -0.5938,2.82813 q 1.0782,-1.59375 2.0938,-2.35938 1.0156,-0.78125 2.0937,-0.78125 0.7032,0 1.7344,0.51563 l -0.9687,2.1875 q -0.6094,-0.45313 -1.3438,-0.45313 -1.2344,0 -2.5469,1.39063 -1.2968,1.375 -2.0312,4.95312 l -1.1719,5.54688 z m 9.283,-5.25 q 0,-4.04688 2.3906,-6.70313 1.9688,-2.1875 5.1561,-2.1875 2.5,0 4.0157,1.5625 1.5312,1.5625 1.5312,4.21875 0,2.39063 -0.9687,4.4375 -0.9532,2.04688 -2.7344,3.14063 -1.7656,1.09375 -3.7343,1.09375 -1.6093,0 -2.9375,-0.6875 -1.3281,-0.6875 -2.0312,-1.95313 -0.6875,-1.26562 -0.6875,-2.92187 z m 2.3594,-0.23438 q 0,1.95313 0.9375,2.96875 0.9375,1 2.375,1 0.7656,0 1.4998,-0.29687 0.75,-0.3125 1.375,-0.9375 0.6407,-0.625 1.0938,-1.42188 0.4531,-0.79687 0.7187,-1.71875 0.4063,-1.29687 0.4063,-2.48437 0,-1.875 -0.9531,-2.90625 -0.9375,-1.03125 -2.3594,-1.03125 -1.1093,0 -2.0311,0.53125 -0.9063,0.51562 -1.6407,1.53125 -0.7343,1.01562 -1.0781,2.375 -0.3437,1.34375 -0.3437,2.39062 z m 12.0592,5.48438 2.8906,-13.82813 h 2.125 l -0.5,2.40625 q 1.3906,-1.40625 2.5937,-2.0625 1.2188,-0.65625 2.4844,-0.65625 1.6719,0 2.625,0.92188 0.9531,0.90625 0.9531,2.42187 0,0.78125 -0.3281,2.42188 l -1.7656,8.375 h -2.3438 l 1.8282,-8.76563 q 0.2812,-1.26562 0.2812,-1.875 0,-0.70312 -0.4844,-1.125 -0.4687,-0.4375 -1.375,-0.4375 -1.8125,0 -3.2187,1.3125 -1.4063,1.29688 -2.0781,4.45313 l -1.3438,6.4375 z m 14.8093,0 2.8906,-13.82813 h 2.3594 l -0.4844,2.28125 q 1.3125,-1.46875 2.3438,-2.03125 1.0312,-0.5625 2.25,-0.5625 1.2812,0 2.1406,0.6875 0.875,0.6875 1.1406,1.90625 1.0625,-1.29687 2.2188,-1.9375 1.1719,-0.65625 2.4687,-0.65625 1.7188,0 2.5782,0.82813 0.875,0.8125 0.875,2.29687 0,0.64063 -0.2969,2.10938 l -1.8594,8.90625 h -2.3594 l 1.9063,-9.14063 q 0.25,-1.10937 0.25,-1.59375 0,-0.6875 -0.4375,-1.07812 -0.4219,-0.39063 -1.2031,-0.39063 -1.0625,0 -2.1563,0.64063 -1.0937,0.64062 -1.7031,1.6875 -0.5938,1.03125 -1.0469,3.17187 l -1.4062,6.70313 h -2.3594 l 1.9531,-9.32813 q 0.2031,-0.95312 0.2031,-1.35937 0,-0.67188 -0.4218,-1.09375 -0.4219,-0.42188 -1.0938,-0.42188 -1.0156,0 -2.1094,0.64063 -1.0937,0.64062 -1.7968,1.78125 -0.6875,1.14062 -1.125,3.25 l -1.3594,6.53125 z m 32.3611,-4.70313 2.2969,0.23438 q -0.5,1.70312 -2.2813,3.25 -1.7656,1.53125 -4.2344,1.53125 -1.5312,0 -2.8125,-0.70313 -1.2812,-0.71875 -1.9531,-2.0625 -0.6719,-1.35937 -0.6719,-3.09375 0,-2.26562 1.0469,-4.39062 1.0469,-2.125 2.7188,-3.15625 1.6718,-1.04688 3.6093,-1.04688 2.4688,0 3.9375,1.54688 1.4844,1.53125 1.4844,4.1875 0,1.01562 -0.1875,2.07812 h -10.1719 q -0.047,0.40625 -0.047,0.73438 0,1.9375 0.8906,2.96875 0.8906,1.01562 2.1719,1.01562 1.2187,0 2.3906,-0.79687 1.1719,-0.79688 1.8125,-2.29688 z m -6.8438,-3.42187 h 7.7657 q 0.016,-0.35938 0.016,-0.51563 0,-1.76562 -0.8906,-2.70312 -0.8907,-0.95313 -2.2813,-0.95313 -1.5156,0 -2.7656,1.04688 -1.2344,1.03125 -1.8438,3.125 z m 11.5281,8.125 2.8906,-13.82813 h 2.125 l -0.5,2.40625 q 1.3907,-1.40625 2.5938,-2.0625 1.2187,-0.65625 2.4844,-0.65625 1.6718,0 2.625,0.92188 0.9531,0.90625 0.9531,2.42187 0,0.78125 -0.3281,2.42188 l -1.7657,8.375 h -2.3437 l 1.8281,-8.76563 q 0.2813,-1.26562 0.2813,-1.875 0,-0.70312 -0.4844,-1.125 -0.4688,-0.4375 -1.375,-0.4375 -1.8125,0 -3.2188,1.3125 -1.4062,1.29688 -2.0781,4.45313 l -1.3437,6.4375 z m 20.325,-1.90625 -0.3907,1.92187 q -0.8437,0.21875 -1.6406,0.21875 -1.4062,0 -2.2344,-0.6875 -0.625,-0.51562 -0.625,-1.42187 0,-0.45313 0.3282,-2.09375 l 1.6875,-8.03125 h -1.8594 l 0.375,-1.82813 h 1.8594 l 0.7187,-3.39062 2.6875,-1.625 -1.0469,5.01562 h 2.3125 l -0.3906,1.82813 h -2.2969 l -1.6093,7.64062 q -0.2969,1.45313 -0.2969,1.75 0,0.40625 0.2344,0.64063 0.25,0.21875 0.7968,0.21875 0.7813,0 1.3907,-0.15625 z"
       id="path109"
       inkscape:connector-curvature="0"
       style="fill:#000000;fill-rule:nonzero" />
    <path
       d="M 2054.1128,371.67453 V 136.93439"
       id="path111"
       inkscape:connector-curvature="0"
       style="fill:#000000;fill-opacity:0;fill-rule:evenodd" />
    <path
       d="M 2054.1128,371.67453 V 136.93439"
       id="path113"
       inkscape:connector-curvature="0"
       style="fill-rule:evenodd;stroke:#000000;stroke-width:3;stroke-linecap:butt;stroke-linejoin:round" />
  </g>
</svg>
