<?xml version="1.0" encoding="UTF-8" standalone="no"?>
<svg
   xmlns:dc="http://purl.org/dc/elements/1.1/"
   xmlns:cc="http://creativecommons.org/ns#"
   xmlns:rdf="http://www.w3.org/1999/02/22-rdf-syntax-ns#"
   xmlns:svg="http://www.w3.org/2000/svg"
   xmlns="http://www.w3.org/2000/svg"
   xmlns:sodipodi="http://sodipodi.sourceforge.net/DTD/sodipodi-0.dtd"
   xmlns:inkscape="http://www.inkscape.org/namespaces/inkscape"
   version="1.1"
   viewBox="0 0 955.76903 488.50137"
   stroke-miterlimit="10"
   id="svg117"
   sodipodi:docname="pyenv_versions.svg"
   width="955.76904"
   height="488.50134"
   style="fill:none;stroke:none;stroke-linecap:square;stroke-miterlimit:10"
   inkscape:version="0.92.3 (2405546, 2018-03-11)">
  <metadata
     id="metadata123">
    <rdf:RDF>
      <cc:Work
         rdf:about="">
        <dc:format>image/svg+xml</dc:format>
        <dc:type
           rdf:resource="http://purl.org/dc/dcmitype/StillImage" />
        <dc:title></dc:title>
      </cc:Work>
    </rdf:RDF>
  </metadata>
  <defs
     id="defs121" />
  <sodipodi:namedview
     pagecolor="#ffffff"
     bordercolor="#666666"
     borderopacity="1"
     objecttolerance="10"
     gridtolerance="10"
     guidetolerance="10"
     inkscape:pageopacity="0"
     inkscape:pageshadow="2"
     inkscape:window-width="1841"
     inkscape:window-height="1167"
     id="namedview119"
     showgrid="false"
     inkscape:zoom="0.44226024"
     inkscape:cx="1307.8937"
     inkscape:cy="110.21631"
     inkscape:window-x="0"
     inkscape:window-y="205"
     inkscape:window-maximized="0"
     inkscape:current-layer="g115"
     fit-margin-top="0"
     fit-margin-left="0"
     fit-margin-right="0"
     fit-margin-bottom="0" />
  <clipPath
     id="p.0">
    <path
       d="M 0,0 H 2244.7822 V 513.4514 H 0 Z"
       id="path2"
       inkscape:connector-curvature="0"
       style="clip-rule:nonzero" />
  </clipPath>
  <g
     clip-path="url(#p.0)"
     id="g115"
     transform="translate(-15.195537,-13.807087)">
    <path
       d="M 0,0 H 2244.7822 V 513.4514 H 0 Z"
       id="path5"
       inkscape:connector-curvature="0"
       style="fill:#000000;fill-opacity:0;fill-rule:evenodd" />
    <path
       d="m 343.5538,35.58046 v 0 c 0,-11.196676 9.07669,-20.273373 20.27338,-20.273373 h 249.68948 c 5.37683,0 10.53344,2.135939 14.33545,5.937933 3.802,3.801994 5.93792,8.958605 5.93792,14.33544 v 81.09105 c 0,11.19668 -9.07672,20.27338 -20.27337,20.27338 H 363.82718 c -11.19669,0 -20.27338,-9.0767 -20.27338,-20.27338 z"
       id="path7"
       inkscape:connector-curvature="0"
       style="fill:#cfe2f3;fill-rule:evenodd" />
    <path
       d="m 343.5538,35.58046 v 0 c 0,-11.196676 9.07669,-20.273373 20.27338,-20.273373 h 249.68948 c 5.37683,0 10.53344,2.135939 14.33545,5.937933 3.802,3.801994 5.93792,8.958605 5.93792,14.33544 v 81.09105 c 0,11.19668 -9.07672,20.27338 -20.27337,20.27338 H 363.82718 c -11.19669,0 -20.27338,-9.0767 -20.27338,-20.27338 z"
       id="path9"
       inkscape:connector-curvature="0"
       style="fill-rule:evenodd;stroke:#000000;stroke-width:3;stroke-linecap:butt;stroke-linejoin:round" />
    <path
       d="M 434.62473,68.125984 V 44.266605 h 7.73437 q 4.39063,0 5.73438,0.359375 2.04687,0.53125 3.42187,2.34375 1.39063,1.796875 1.39063,4.640625 0,2.1875 -0.79688,3.6875 -0.79687,1.5 -2.03125,2.359375 -1.23437,0.84375 -2.5,1.125 -1.71875,0.34375 -5,0.34375 h -3.14062 v 9.000004 z m 4.8125,-19.828129 v 6.78125 h 2.64062 q 2.84375,0 3.79688,-0.375 0.96875,-0.375 1.51562,-1.171875 0.54688,-0.796875 0.54688,-1.859375 0,-1.296875 -0.76563,-2.140625 -0.76562,-0.859375 -1.9375,-1.0625 -0.85937,-0.171875 -3.46875,-0.171875 z m 15.22961,2.546875 h 4.85938 l 4.14062,12.265625 4.03125,-12.265625 h 4.73438 l -6.10938,16.625004 -1.07812,3.015625 q -0.60938,1.515625 -1.15625,2.3125 -0.54688,0.796875 -1.25,1.28125 -0.70313,0.5 -1.75,0.78125 -1.03125,0.28125 -2.32813,0.28125 -1.3125,0 -2.59375,-0.28125 l -0.40625,-3.578125 q 1.07813,0.21875 1.9375,0.21875 1.59375,0 2.35938,-0.9375 0.76562,-0.9375 1.17187,-2.390625 z m 28.61365,0 v 3.640625 h -3.125 v 6.96875 q 0,2.109375 0.0937,2.46875 0.0937,0.343754 0.40625,0.578129 0.3125,0.21875 0.78125,0.21875 0.625,0 1.82813,-0.4375 l 0.39062,3.546875 q -1.59375,0.6875 -3.60937,0.6875 -1.23438,0 -2.23438,-0.40625 -0.98437,-0.421875 -1.45312,-1.078125 -0.46875,-0.65625 -0.64063,-1.78125 -0.14062,-0.796875 -0.14062,-3.234379 v -7.53125 h -2.10938 V 50.84473 h 2.10938 v -3.4375 l 4.57812,-2.671875 v 6.109375 z m 7.73914,-6.578125 v 8.78125 q 2.20312,-2.59375 5.28125,-2.59375 1.57812,0 2.84375,0.59375 1.28125,0.578125 1.92187,1.5 0.64063,0.90625 0.875,2.015625 0.23438,1.09375 0.23438,3.421875 v 10.140629 h -4.5625 V 59.00098 q 0,-2.71875 -0.26563,-3.453125 -0.26562,-0.734375 -0.92187,-1.15625 -0.65625,-0.4375 -1.65625,-0.4375 -1.14063,0 -2.03125,0.5625 -0.89063,0.546875 -1.3125,1.65625 -0.40625,1.109375 -0.40625,3.296875 v 8.656254 H 486.4415 V 44.266605 Z m 14.73315,14.96875 q 0,-2.265625 1.125,-4.390625 1.125,-2.140625 3.1875,-3.265625 2.06253,-1.125 4.59378,-1.125 3.92188,0 6.42188,2.546875 2.51562,2.546875 2.51562,6.4375 0,3.921875 -2.53125,6.500004 -2.53125,2.578125 -6.375,2.578125 -2.375,0 -4.53128,-1.0625 -2.15625,-1.078125 -3.28125,-3.15625 -1.125,-2.078129 -1.125,-5.062504 z m 4.6875,0.25 q 0,2.578125 1.21875,3.9375 1.23441,1.359379 3.01566,1.359379 1.79687,0 3,-1.359379 1.21875,-1.359375 1.21875,-3.96875 0,-2.546875 -1.21875,-3.90625 -1.20313,-1.375 -3,-1.375 -1.78125,0 -3.01566,1.375 -1.21875,1.359375 -1.21875,3.9375 z m 32.45194,8.640629 h -4.5625 V 59.31348 q 0,-2.8125 -0.29688,-3.625 -0.29687,-0.828125 -0.95312,-1.28125 -0.65625,-0.453125 -1.59375,-0.453125 -1.1875,0 -2.14063,0.65625 -0.9375,0.640625 -1.28125,1.71875 -0.34375,1.078125 -0.34375,3.96875 v 7.828129 h -4.57812 V 50.84473 h 4.25 v 2.53125 q 2.26562,-2.921875 5.6875,-2.921875 1.51562,0 2.76562,0.546875 1.26563,0.546875 1.90625,1.390625 0.64063,0.84375 0.89063,1.921875 0.25,1.078125 0.25,3.078125 z"
       id="path11"
       inkscape:connector-curvature="0"
       style="fill:#000000;fill-rule:nonzero" />
    <path
       d="m 452.859,101.79786 4.42187,-0.54687 q 0.21875,1.70312 1.14063,2.59375 0.9375,0.89062 2.25,0.89062 1.42187,0 2.39062,-1.0625 0.96875,-1.07812 0.96875,-2.90625 0,-1.71875 -0.9375,-2.71875 -0.92187,-1.015625 -2.25,-1.015625 -0.89062,0 -2.10937,0.34375 l 0.5,-3.734375 q 1.85937,0.04687 2.82812,-0.796875 0.98438,-0.859375 0.98438,-2.28125 0,-1.203125 -0.71875,-1.921875 -0.70313,-0.71875 -1.90625,-0.71875 -1.15625,0 -2,0.828125 -0.82813,0.8125 -1,2.375 l -4.21875,-0.71875 q 0.4375,-2.171875 1.32812,-3.453125 0.89063,-1.296875 2.46875,-2.03125 1.59375,-0.75 3.5625,-0.75 3.35938,0 5.40625,2.140625 1.67188,1.765625 1.67188,3.984375 0,3.140625 -3.4375,5 2.04687,0.4375 3.28125,1.96875 1.23437,1.53125 1.23437,3.70313 0,3.14062 -2.29687,5.35937 -2.29688,2.20313 -5.71875,2.20313 -3.23438,0 -5.375,-1.85938 -2.125,-1.85937 -2.46875,-4.875 z m 19.67615,6.32813 v -4.57813 h 4.57812 v 4.57813 z m 8.29086,-19.281255 v -4.25 h 15.625 v 3.3125 q -1.92188,1.90625 -3.9375,5.46875 -2,3.5625 -3.04688,7.578125 -1.04687,4.01563 -1.03125,7.17188 h -4.40625 q 0.10938,-4.95313 2.03125,-10.093755 1.9375,-5.140625 5.15625,-9.1875 z m 19.50427,19.281255 v -4.57813 h 4.57813 v 4.57813 z m 8.11902,-6.32813 4.42191,-0.54687 q 0.21875,1.70312 1.14062,2.59375 0.9375,0.89062 2.25,0.89062 1.42188,0 2.39063,-1.0625 0.96875,-1.07812 0.96875,-2.90625 0,-1.71875 -0.9375,-2.71875 -0.92188,-1.015625 -2.25,-1.015625 -0.89063,0 -2.10938,0.34375 l 0.5,-3.734375 q 1.85938,0.04687 2.82813,-0.796875 0.98437,-0.859375 0.98437,-2.28125 0,-1.203125 -0.71875,-1.921875 -0.70312,-0.71875 -1.90625,-0.71875 -1.15625,0 -2,0.828125 -0.82812,0.8125 -1,2.375 l -4.21878,-0.71875 q 0.4375,-2.171875 1.32813,-3.453125 0.89062,-1.296875 2.46878,-2.03125 1.59375,-0.75 3.5625,-0.75 3.35937,0 5.40625,2.140625 1.67187,1.765625 1.67187,3.984375 0,3.140625 -3.4375,5 2.04688,0.4375 3.28125,1.96875 1.23438,1.53125 1.23438,3.70313 0,3.14062 -2.29688,5.35937 -2.29687,2.20313 -5.71875,2.20313 -3.23437,0 -5.37503,-1.85938 -2.125,-1.85937 -2.46875,-4.875 z"
       id="path13"
       inkscape:connector-curvature="0"
       style="fill:#000000;fill-rule:nonzero" />
    <path
       d="m 16.695538,393.19727 v 0 c 0,-11.88666 9.636059,-21.52274 21.52274,-21.52274 H 234.47989 c 5.70817,0 11.18257,2.26758 15.21887,6.30387 4.0363,4.03631 6.30386,9.51071 6.30386,15.21887 v 86.08838 c 0,11.88669 -9.63606,21.52277 -21.52273,21.52277 H 38.218277 c -11.886681,0 -21.52274,-9.63608 -21.52274,-21.52277 z"
       id="path15"
       inkscape:connector-curvature="0"
       style="fill:#d0e0e3;fill-rule:evenodd" />
    <path
       d="m 16.695538,393.19727 v 0 c 0,-11.88666 9.636059,-21.52274 21.52274,-21.52274 H 234.47989 c 5.70817,0 11.18257,2.26758 15.21887,6.30387 4.0363,4.03631 6.30386,9.51071 6.30386,15.21887 v 86.08838 c 0,11.88669 -9.63606,21.52277 -21.52273,21.52277 H 38.218277 c -11.886681,0 -21.52274,-9.63608 -21.52274,-21.52277 z"
       id="path17"
       inkscape:connector-curvature="0"
       style="fill-rule:evenodd;stroke:#000000;stroke-width:3;stroke-linecap:butt;stroke-linejoin:round" />
    <path
       d="m 86.313354,384.01334 h 3.40625 v 2.03125 q 0.671875,-1.03125 1.796875,-1.6875 1.125,-0.65625 2.515625,-0.65625 2.40625,0 4.078125,1.89063 1.6875,1.89062 1.6875,5.26562 0,3.45313 -1.703125,5.375 -1.6875,1.92188 -4.09375,1.92188 -1.140625,0 -2.078125,-0.45313 -0.921875,-0.45312 -1.953125,-1.5625 v 6.96875 h -3.65625 z m 3.609375,6.6875 q 0,2.32813 0.921875,3.4375 0.9375,1.10938 2.265625,1.10938 1.265625,0 2.109375,-1.01563 0.859375,-1.03125 0.859375,-3.35937 0,-2.17188 -0.875,-3.21875 -0.875,-1.0625 -2.171875,-1.0625 -1.328125,0 -2.21875,1.04687 -0.890625,1.03125 -0.890625,3.0625 z m 16.282701,7.14063 h -3.67188 v -13.82813 h 3.40625 v 1.96875 q 0.875,-1.39062 1.5625,-1.82812 0.70313,-0.45313 1.57813,-0.45313 1.25,0 2.42187,0.70313 l -1.14062,3.1875 q -0.92188,-0.60938 -1.71875,-0.60938 -0.76563,0 -1.29688,0.42188 -0.53125,0.42187 -0.84375,1.53125 -0.29687,1.10937 -0.29687,4.64062 z m 6.01417,-7.10938 q 0,-1.8125 0.89063,-3.51562 0.90625,-1.71875 2.54687,-2.60938 1.65625,-0.90625 3.6875,-0.90625 3.14063,0 5.14063,2.04688 2,2.03125 2,5.14062 0,3.14063 -2.03125,5.20313 -2.01563,2.0625 -5.07813,2.0625 -1.90625,0 -3.64062,-0.85938 -1.71875,-0.85937 -2.625,-2.51562 -0.89063,-1.65625 -0.89063,-4.04688 z m 3.75,0.20313 q 0,2.04687 0.96875,3.14062 0.98438,1.09375 2.42188,1.09375 1.42187,0 2.39062,-1.09375 0.98438,-1.09375 0.98438,-3.17187 0,-2.03125 -0.98438,-3.125 -0.96875,-1.09375 -2.39062,-1.09375 -1.4375,0 -2.42188,1.09375 -0.96875,1.09375 -0.96875,3.15625 z m 13.29833,-8.79688 v -3.375 h 3.67187 v 3.375 z m 3.67187,1.875 v 13.40625 q 0,2.64063 -0.35937,3.71875 -0.34375,1.09375 -1.32813,1.70313 -0.96875,0.60937 -2.5,0.60937 -0.54687,0 -1.1875,-0.0937 -0.625,-0.0937 -1.34375,-0.29687 l 0.64063,-3.125 q 0.25,0.0469 0.48437,0.0781 0.21875,0.0469 0.42188,0.0469 0.5625,0 0.90625,-0.25 0.35937,-0.23438 0.46875,-0.57813 0.125,-0.34375 0.125,-2.03125 v -13.1875 z m 11.82784,9.42188 3.64062,0.625 q -0.70312,2 -2.21875,3.04687 -1.51562,1.04688 -3.79687,1.04688 -3.60938,0 -5.32813,-2.35938 -1.375,-1.89062 -1.375,-4.76562 0,-3.4375 1.79688,-5.375 1.79687,-1.95313 4.54687,-1.95313 3.07813,0 4.85938,2.04688 1.78125,2.03125 1.70312,6.23437 h -9.15625 q 0.0469,1.625 0.89063,2.53125 0.84375,0.90625 2.10937,0.90625 0.85938,0 1.4375,-0.46875 0.59375,-0.46875 0.89063,-1.51562 z m 0.20312,-3.6875 q -0.0312,-1.59375 -0.8125,-2.42188 -0.78125,-0.82812 -1.90625,-0.82812 -1.20312,0 -1.98437,0.875 -0.78125,0.875 -0.76563,2.375 z m 18.66867,-1.64063 -3.60937,0.65625 q -0.1875,-1.09375 -0.82813,-1.64062 -0.64062,-0.54688 -1.67187,-0.54688 -1.35938,0 -2.17188,0.95313 -0.8125,0.9375 -0.8125,3.15625 0,2.45312 0.8125,3.46875 0.82813,1.01562 2.21875,1.01562 1.04688,0 1.70313,-0.59375 0.67187,-0.59375 0.95312,-2.03125 l 3.57813,0.60938 q -0.54688,2.46875 -2.14063,3.73437 -1.59375,1.26563 -4.25,1.26563 -3.03125,0 -4.84375,-1.90625 -1.79686,-1.92188 -1.79686,-5.29688 0,-3.4375 1.79686,-5.34375 1.8125,-1.90625 4.90625,-1.90625 2.51563,0 4,1.09375 1.5,1.07813 2.15625,3.3125 z m 9.10621,-4.09375 v 2.92188 h -2.5 v 5.5625 q 0,1.70312 0.0625,1.98437 0.0781,0.28125 0.32812,0.46875 0.26563,0.17188 0.625,0.17188 0.51563,0 1.46875,-0.35938 l 0.3125,2.84375 q -1.26562,0.54688 -2.89062,0.54688 -0.98438,0 -1.78125,-0.32813 -0.79688,-0.32812 -1.17188,-0.85937 -0.35937,-0.53125 -0.5,-1.42188 -0.125,-0.64062 -0.125,-2.57812 v -6.03125 h -1.67187 v -2.92188 h 1.67187 v -2.73437 l 3.67188,-2.14063 v 4.875 z m 11.11111,13.82813 h -3.65625 v -13.78125 q -2,1.875 -4.71875,2.76562 v -3.3125 q 1.4375,-0.46875 3.10937,-1.78125 1.67188,-1.3125 2.29688,-3.04687 h 2.96875 z"
       id="path19"
       inkscape:connector-curvature="0"
       style="fill:#000000;fill-rule:nonzero" />
    <path
       d="m 105.78051,461.84146 -3.65625,-19.07813 h 2.45313 l 2.21875,11.375 q 0.60937,3.09375 0.78125,5 1.20312,-2.45312 1.96875,-3.89062 l 6.8125,-12.48438 h 2.625 l -10.46875,19.07813 z m 14.56337,-16.40625 0.5625,-2.67188 h 2.32813 l -0.54688,2.67188 z m -3.4375,16.40625 2.89063,-13.82813 h 2.35937 l -2.89062,13.82813 z m 6.01592,0 2.89062,-13.82813 h 2.07813 l -0.59375,2.82813 q 1.07811,-1.59375 2.09374,-2.35938 1.01562,-0.78125 2.09375,-0.78125 0.70312,0 1.73437,0.51563 l -0.96875,2.1875 q -0.60937,-0.45313 -1.34375,-0.45313 -1.23437,0 -2.54687,1.39063 -1.29687,1.375 -2.03124,4.95312 l -1.17188,5.54688 z m 14.37673,-1.90625 -0.39063,1.92187 q -0.84375,0.21875 -1.64062,0.21875 -1.40625,0 -2.23438,-0.6875 -0.625,-0.51562 -0.625,-1.42187 0,-0.45313 0.32813,-2.09375 l 1.6875,-8.03125 h -1.85938 l 0.375,-1.82813 h 1.85938 l 0.71875,-3.39062 2.6875,-1.625 -1.04688,5.01562 h 2.3125 l -0.39062,1.82813 h -2.29688 l -1.60937,7.64062 q -0.29688,1.45313 -0.29688,1.75 0,0.40625 0.23438,0.64063 0.25,0.21875 0.79687,0.21875 0.78125,0 1.39063,-0.15625 z m 11.34346,-0.59375 q -2.5,2.8125 -5.09375,2.8125 -1.60938,0 -2.59375,-0.90625 -0.96875,-0.92188 -0.96875,-2.25 0,-0.875 0.4375,-3 l 1.67187,-7.98438 h 2.34375 l -1.84375,8.84375 q -0.23437,1.10938 -0.23437,1.71875 0,0.78125 0.46875,1.21875 0.48437,0.4375 1.40625,0.4375 0.98437,0 1.92187,-0.48437 0.95313,-0.48438 1.64063,-1.29688 0.6875,-0.82812 1.10937,-1.95312 0.28125,-0.70313 0.67188,-2.5 l 1.25,-5.98438 h 2.34375 l -2.89063,13.82813 h -2.17187 z m 14.69993,0.78125 q -1.21875,1.0625 -2.35937,1.54687 -1.125,0.48438 -2.42188,0.48438 -1.90625,0 -3.07812,-1.125 -1.17188,-1.125 -1.17188,-2.89063 0,-1.15625 0.51563,-2.04687 0.53125,-0.89063 1.40625,-1.42188 0.875,-0.54687 2.14062,-0.78125 0.79688,-0.15625 3.01563,-0.25 2.21875,-0.0937 3.17187,-0.46875 0.28125,-0.95312 0.28125,-1.59375 0,-0.82812 -0.59375,-1.29687 -0.82812,-0.64063 -2.40625,-0.64063 -1.48437,0 -2.42187,0.65625 -0.9375,0.65625 -1.375,1.85938 l -2.375,-0.20313 q 0.71875,-2.0625 2.29687,-3.15625 1.59375,-1.09375 4,-1.09375 2.5625,0 4.0625,1.23438 1.14063,0.90625 1.14063,2.35937 0,1.10938 -0.32813,2.5625 l -0.76562,3.4375 q -0.35938,1.64063 -0.35938,2.67188 0,0.65625 0.28125,1.875 h -2.375 q -0.20312,-0.67188 -0.28125,-1.71875 z m 0.875,-5.28125 q -0.5,0.1875 -1.0625,0.29687 -0.5625,0.10938 -1.89062,0.21875 -2.0625,0.1875 -2.90625,0.46875 -0.84375,0.28125 -1.28125,0.89063 -0.42188,0.60937 -0.42188,1.34375 0,1 0.67188,1.64062 0.6875,0.625 1.95312,0.625 1.17188,0 2.25,-0.60937 1.07813,-0.625 1.70313,-1.71875 0.625,-1.10938 0.98437,-3.15625 z m 4.44994,7 3.98437,-19.07813 h 2.35938 l -3.98438,19.07813 z"
       id="path21"
       inkscape:connector-curvature="0"
       style="fill:#000000;fill-rule:nonzero" />
    <path
       d="m 62.731182,493.84146 3.984379,-19.07813 h 13.78125 l -0.453125,2.17188 H 68.809311 l -1.234375,5.9375 h 10.921875 l -0.453125,2.17187 h -10.9375 l -1.375,6.64063 h 12.015625 l -0.453125,2.15625 z m 17.467014,0 2.890625,-13.82813 h 2.125 l -0.5,2.40625 q 1.390625,-1.40625 2.59375,-2.0625 1.21875,-0.65625 2.484375,-0.65625 1.671875,0 2.625,0.92188 0.953125,0.90625 0.953125,2.42187 0,0.78125 -0.328125,2.42188 l -1.765625,8.375 h -2.34375 l 1.828125,-8.76563 q 0.28125,-1.26562 0.28125,-1.875 0,-0.70312 -0.484375,-1.125 -0.46875,-0.4375 -1.375,-0.4375 -1.8125,0 -3.21875,1.3125 -1.40625,1.29688 -2.078125,4.45313 l -1.34375,6.4375 z m 18.30931,0 -2.265625,-13.82813 h 2.296875 l 1.171875,7.625 q 0.203125,1.25 0.484379,4.0625 0.67187,-1.46875 1.73437,-3.35937 l 4.625,-8.32813 h 2.48438 l -7.92188,13.82813 z m 13.187504,-16.40625 0.5625,-2.67188 h 2.32812 l -0.54687,2.67188 z m -3.4375,16.40625 2.89062,-13.82813 h 2.35938 l -2.89063,13.82813 z m 6.01591,0 2.89063,-13.82813 h 2.07812 l -0.59375,2.82813 q 1.07813,-1.59375 2.09375,-2.35938 1.01563,-0.78125 2.09375,-0.78125 0.70313,0 1.73438,0.51563 l -0.96875,2.1875 q -0.60938,-0.45313 -1.34375,-0.45313 -1.23438,0 -2.54688,1.39063 -1.29687,1.375 -2.03125,4.95312 l -1.17187,5.54688 z m 9.28299,-5.25 q 0,-4.04688 2.39063,-6.70313 1.96875,-2.1875 5.15625,-2.1875 2.5,0 4.01562,1.5625 1.53125,1.5625 1.53125,4.21875 0,2.39063 -0.96875,4.4375 -0.95312,2.04688 -2.73437,3.14063 -1.76563,1.09375 -3.73438,1.09375 -1.60937,0 -2.9375,-0.6875 -1.32812,-0.6875 -2.03125,-1.95313 -0.6875,-1.26562 -0.6875,-2.92187 z m 2.35938,-0.23438 q 0,1.95313 0.9375,2.96875 0.9375,1 2.375,1 0.76562,0 1.5,-0.29687 0.75,-0.3125 1.375,-0.9375 0.64062,-0.625 1.09375,-1.42188 0.45312,-0.79687 0.71875,-1.71875 0.40625,-1.29687 0.40625,-2.48437 0,-1.875 -0.95313,-2.90625 -0.9375,-1.03125 -2.35937,-1.03125 -1.10938,0 -2.03125,0.53125 -0.90625,0.51562 -1.64063,1.53125 -0.73437,1.01562 -1.07812,2.375 -0.34375,1.34375 -0.34375,2.39062 z m 12.05931,5.48438 2.89062,-13.82813 h 2.125 l -0.5,2.40625 q 1.39063,-1.40625 2.59375,-2.0625 1.21875,-0.65625 2.48438,-0.65625 1.67187,0 2.625,0.92188 0.95312,0.90625 0.95312,2.42187 0,0.78125 -0.32812,2.42188 l -1.76563,8.375 h -2.34375 l 1.82813,-8.76563 q 0.28125,-1.26562 0.28125,-1.875 0,-0.70312 -0.48438,-1.125 -0.46875,-0.4375 -1.375,-0.4375 -1.8125,0 -3.21875,1.3125 -1.40625,1.29688 -2.07812,4.45313 l -1.34375,6.4375 z m 14.80929,0 2.89063,-13.82813 h 2.35937 l -0.48437,2.28125 q 1.3125,-1.46875 2.34375,-2.03125 1.03125,-0.5625 2.25,-0.5625 1.28125,0 2.14062,0.6875 0.875,0.6875 1.14063,1.90625 1.0625,-1.29687 2.21875,-1.9375 1.17187,-0.65625 2.46875,-0.65625 1.71875,0 2.57812,0.82813 0.875,0.8125 0.875,2.29687 0,0.64063 -0.29687,2.10938 l -1.85938,8.90625 h -2.35937 l 1.90625,-9.14063 q 0.25,-1.10937 0.25,-1.59375 0,-0.6875 -0.4375,-1.07812 -0.42188,-0.39063 -1.20313,-0.39063 -1.0625,0 -2.15625,0.64063 -1.09375,0.64062 -1.70312,1.6875 -0.59375,1.03125 -1.04688,3.17187 l -1.40625,6.70313 h -2.35937 l 1.95312,-9.32813 q 0.20313,-0.95312 0.20313,-1.35937 0,-0.67188 -0.42188,-1.09375 -0.42187,-0.42188 -1.09375,-0.42188 -1.01562,0 -2.10937,0.64063 -1.09375,0.64062 -1.79688,1.78125 -0.6875,1.14062 -1.125,3.25 l -1.35937,6.53125 z m 32.36112,-4.70313 2.29687,0.23438 q -0.5,1.70312 -2.28125,3.25 -1.76562,1.53125 -4.23437,1.53125 -1.53125,0 -2.8125,-0.70313 -1.28125,-0.71875 -1.95313,-2.0625 -0.67187,-1.35937 -0.67187,-3.09375 0,-2.26562 1.04687,-4.39062 1.04688,-2.125 2.71875,-3.15625 1.67188,-1.04688 3.60938,-1.04688 2.46875,0 3.9375,1.54688 1.48437,1.53125 1.48437,4.1875 0,1.01562 -0.1875,2.07812 h -10.17187 q -0.0469,0.40625 -0.0469,0.73438 0,1.9375 0.89063,2.96875 0.89062,1.01562 2.17187,1.01562 1.21875,0 2.39063,-0.79687 1.17187,-0.79688 1.8125,-2.29688 z m -6.84375,-3.42187 h 7.76562 q 0.0156,-0.35938 0.0156,-0.51563 0,-1.76562 -0.89063,-2.70312 -0.89062,-0.95313 -2.28125,-0.95313 -1.51562,0 -2.76562,1.04688 -1.23438,1.03125 -1.84375,3.125 z m 11.52807,8.125 2.89063,-13.82813 h 2.125 l -0.5,2.40625 q 1.39062,-1.40625 2.59375,-2.0625 1.21875,-0.65625 2.48437,-0.65625 1.67188,0 2.625,0.92188 0.95313,0.90625 0.95313,2.42187 0,0.78125 -0.32813,2.42188 l -1.76562,8.375 h -2.34375 l 1.82812,-8.76563 q 0.28125,-1.26562 0.28125,-1.875 0,-0.70312 -0.48437,-1.125 -0.46875,-0.4375 -1.375,-0.4375 -1.8125,0 -3.21875,1.3125 -1.40625,1.29688 -2.07813,4.45313 l -1.34375,6.4375 z m 20.32492,-1.90625 -0.39062,1.92187 q -0.84375,0.21875 -1.64063,0.21875 -1.40625,0 -2.23437,-0.6875 -0.625,-0.51562 -0.625,-1.42187 0,-0.45313 0.32812,-2.09375 l 1.6875,-8.03125 h -1.85937 l 0.375,-1.82813 h 1.85937 l 0.71875,-3.39062 2.6875,-1.625 -1.04687,5.01562 h 2.3125 l -0.39063,1.82813 h -2.29687 l -1.60938,7.64062 q -0.29687,1.45313 -0.29687,1.75 0,0.40625 0.23437,0.64063 0.25,0.21875 0.79688,0.21875 0.78125,0 1.39062,-0.15625 z"
       id="path23"
       inkscape:connector-curvature="0"
       style="fill:#000000;fill-rule:nonzero" />
    <path
       d="m 369.01837,393.19727 v 0 c 0,-11.88666 9.63605,-21.52274 21.52274,-21.52274 h 196.26163 c 5.70819,0 11.18255,2.26758 15.21887,6.30387 4.03625,4.03631 6.30383,9.51071 6.30383,15.21887 v 86.08838 c 0,11.88669 -9.63605,21.52277 -21.5227,21.52277 H 390.54111 c -11.88669,0 -21.52274,-9.63608 -21.52274,-21.52277 z"
       id="path25"
       inkscape:connector-curvature="0"
       style="fill:#d0e0e3;fill-rule:evenodd" />
    <path
       d="m 369.01837,393.19727 v 0 c 0,-11.88666 9.63605,-21.52274 21.52274,-21.52274 h 196.26163 c 5.70819,0 11.18255,2.26758 15.21887,6.30387 4.03625,4.03631 6.30383,9.51071 6.30383,15.21887 v 86.08838 c 0,11.88669 -9.63605,21.52277 -21.5227,21.52277 H 390.54111 c -11.88669,0 -21.52274,-9.63608 -21.52274,-21.52277 z"
       id="path27"
       inkscape:connector-curvature="0"
       style="fill-rule:evenodd;stroke:#000000;stroke-width:3;stroke-linecap:butt;stroke-linejoin:round" />
    <path
       d="m 438.6362,384.01334 h 3.40625 v 2.03125 q 0.67187,-1.03125 1.79687,-1.6875 1.125,-0.65625 2.51563,-0.65625 2.40625,0 4.07812,1.89063 1.6875,1.89062 1.6875,5.26562 0,3.45313 -1.70312,5.375 -1.6875,1.92188 -4.09375,1.92188 -1.14063,0 -2.07813,-0.45313 -0.92187,-0.45312 -1.95312,-1.5625 v 6.96875 h -3.65625 z m 3.60937,6.6875 q 0,2.32813 0.92188,3.4375 0.9375,1.10938 2.26562,1.10938 1.26563,0 2.10938,-1.01563 0.85937,-1.03125 0.85937,-3.35937 0,-2.17188 -0.875,-3.21875 -0.875,-1.0625 -2.17187,-1.0625 -1.32813,0 -2.21875,1.04687 -0.89063,1.03125 -0.89063,3.0625 z m 16.28269,7.14063 h -3.67188 v -13.82813 h 3.40625 v 1.96875 q 0.875,-1.39062 1.5625,-1.82812 0.70313,-0.45313 1.57813,-0.45313 1.25,0 2.42187,0.70313 l -1.14062,3.1875 q -0.92188,-0.60938 -1.71875,-0.60938 -0.76563,0 -1.29688,0.42188 -0.53125,0.42187 -0.84375,1.53125 -0.29687,1.10937 -0.29687,4.64062 z m 6.01419,-7.10938 q 0,-1.8125 0.89062,-3.51562 0.90625,-1.71875 2.54688,-2.60938 1.65625,-0.90625 3.6875,-0.90625 3.14062,0 5.14062,2.04688 2,2.03125 2,5.14062 0,3.14063 -2.03125,5.20313 -2.01562,2.0625 -5.07812,2.0625 -1.90625,0 -3.64063,-0.85938 -1.71875,-0.85937 -2.625,-2.51562 -0.89062,-1.65625 -0.89062,-4.04688 z m 3.75,0.20313 q 0,2.04687 0.96875,3.14062 0.98437,1.09375 2.42187,1.09375 1.42188,0 2.39063,-1.09375 0.98437,-1.09375 0.98437,-3.17187 0,-2.03125 -0.98437,-3.125 -0.96875,-1.09375 -2.39063,-1.09375 -1.4375,0 -2.42187,1.09375 -0.96875,1.09375 -0.96875,3.15625 z m 13.29831,-8.79688 v -3.375 h 3.67187 v 3.375 z m 3.67187,1.875 v 13.40625 q 0,2.64063 -0.35937,3.71875 -0.34375,1.09375 -1.32813,1.70313 -0.96875,0.60937 -2.5,0.60937 -0.54687,0 -1.1875,-0.0937 -0.625,-0.0937 -1.34375,-0.29687 l 0.64063,-3.125 q 0.25,0.0469 0.48437,0.0781 0.21875,0.0469 0.42188,0.0469 0.5625,0 0.90625,-0.25 0.35937,-0.23438 0.46875,-0.57813 0.125,-0.34375 0.125,-2.03125 v -13.1875 z m 11.82785,9.42188 3.64063,0.625 q -0.70313,2 -2.21875,3.04687 -1.51563,1.04688 -3.79688,1.04688 -3.60937,0 -5.32812,-2.35938 -1.375,-1.89062 -1.375,-4.76562 0,-3.4375 1.79687,-5.375 1.79688,-1.95313 4.54688,-1.95313 3.07812,0 4.85937,2.04688 1.78125,2.03125 1.70313,6.23437 h -9.15625 q 0.0469,1.625 0.89062,2.53125 0.84375,0.90625 2.10938,0.90625 0.85937,0 1.4375,-0.46875 0.59375,-0.46875 0.89062,-1.51562 z m 0.20313,-3.6875 q -0.0312,-1.59375 -0.8125,-2.42188 -0.78125,-0.82812 -1.90625,-0.82812 -1.20313,0 -1.98438,0.875 -0.78125,0.875 -0.76562,2.375 z m 18.66867,-1.64063 -3.60938,0.65625 q -0.1875,-1.09375 -0.82812,-1.64062 -0.64063,-0.54688 -1.67188,-0.54688 -1.35937,0 -2.17187,0.95313 -0.8125,0.9375 -0.8125,3.15625 0,2.45312 0.8125,3.46875 0.82812,1.01562 2.21875,1.01562 1.04687,0 1.70312,-0.59375 0.67188,-0.59375 0.95313,-2.03125 l 3.57812,0.60938 q -0.54687,2.46875 -2.14062,3.73437 -1.59375,1.26563 -4.25,1.26563 -3.03125,0 -4.84375,-1.90625 -1.79688,-1.92188 -1.79688,-5.29688 0,-3.4375 1.79688,-5.34375 1.8125,-1.90625 4.90625,-1.90625 2.51562,0 4,1.09375 1.5,1.07813 2.15625,3.3125 z m 9.1062,-4.09375 v 2.92188 h -2.5 v 5.5625 q 0,1.70312 0.0625,1.98437 0.0781,0.28125 0.32812,0.46875 0.26563,0.17188 0.625,0.17188 0.51563,0 1.46875,-0.35938 l 0.3125,2.84375 q -1.26562,0.54688 -2.89062,0.54688 -0.98438,0 -1.78125,-0.32813 -0.79688,-0.32812 -1.17188,-0.85937 -0.35937,-0.53125 -0.5,-1.42188 -0.125,-0.64062 -0.125,-2.57812 v -6.03125 h -1.67187 v -2.92188 h 1.67187 v -2.73437 l 3.67188,-2.14063 v 4.875 z m 14.11108,10.4375 v 3.39063 h -12.82812 q 0.21875,-1.92188 1.25,-3.64063 1.04687,-1.73437 4.125,-4.57812 2.46875,-2.3125 3.03125,-3.125 0.75,-1.14063 0.75,-2.25 0,-1.21875 -0.65625,-1.875 -0.65625,-0.65625 -1.8125,-0.65625 -1.14063,0 -1.82813,0.6875 -0.67187,0.6875 -0.78125,2.29687 l -3.64062,-0.375 q 0.32812,-3.01562 2.04687,-4.32812 1.71875,-1.3125 4.29688,-1.3125 2.8125,0 4.42187,1.53125 1.625,1.51562 1.625,3.78125 0,1.28125 -0.46875,2.45312 -0.45312,1.15625 -1.45312,2.4375 -0.67188,0.84375 -2.40625,2.4375 -1.71875,1.57813 -2.1875,2.10938 -0.45313,0.51562 -0.75,1.01562 z"
       id="path29"
       inkscape:connector-curvature="0"
       style="fill:#000000;fill-rule:nonzero" />
    <path
       d="m 458.10333,461.84146 -3.65625,-19.07813 h 2.45313 l 2.21875,11.375 q 0.60937,3.09375 0.78125,5 1.20312,-2.45312 1.96875,-3.89062 l 6.8125,-12.48438 h 2.625 l -10.46875,19.07813 z m 14.56338,-16.40625 0.5625,-2.67188 h 2.32813 l -0.54688,2.67188 z m -3.4375,16.40625 2.89063,-13.82813 h 2.35937 l -2.89062,13.82813 z m 6.0159,0 2.89063,-13.82813 h 2.07812 l -0.59375,2.82813 q 1.07813,-1.59375 2.09375,-2.35938 1.01563,-0.78125 2.09375,-0.78125 0.70313,0 1.73438,0.51563 l -0.96875,2.1875 q -0.60938,-0.45313 -1.34375,-0.45313 -1.23438,0 -2.54688,1.39063 -1.29687,1.375 -2.03125,4.95312 l -1.17187,5.54688 z m 14.37674,-1.90625 -0.39062,1.92187 q -0.84375,0.21875 -1.64063,0.21875 -1.40625,0 -2.23437,-0.6875 -0.625,-0.51562 -0.625,-1.42187 0,-0.45313 0.32812,-2.09375 l 1.6875,-8.03125 h -1.85937 l 0.375,-1.82813 h 1.85937 l 0.71875,-3.39062 2.6875,-1.625 -1.04687,5.01562 h 2.3125 l -0.39063,1.82813 h -2.29687 l -1.60938,7.64062 q -0.29687,1.45313 -0.29687,1.75 0,0.40625 0.23437,0.64063 0.25,0.21875 0.79688,0.21875 0.78125,0 1.39062,-0.15625 z m 11.34348,-0.59375 q -2.5,2.8125 -5.09375,2.8125 -1.60938,0 -2.59375,-0.90625 -0.96875,-0.92188 -0.96875,-2.25 0,-0.875 0.4375,-3 l 1.67187,-7.98438 h 2.34375 l -1.84375,8.84375 q -0.23437,1.10938 -0.23437,1.71875 0,0.78125 0.46875,1.21875 0.48437,0.4375 1.40625,0.4375 0.98437,0 1.92187,-0.48437 0.95313,-0.48438 1.64063,-1.29688 0.6875,-0.82812 1.10937,-1.95312 0.28125,-0.70313 0.67188,-2.5 l 1.25,-5.98438 h 2.34375 l -2.89063,13.82813 h -2.17187 z m 14.69995,0.78125 q -1.21875,1.0625 -2.35937,1.54687 -1.125,0.48438 -2.42191,0.48438 -1.90625,0 -3.07813,-1.125 -1.17187,-1.125 -1.17187,-2.89063 0,-1.15625 0.51562,-2.04687 0.53125,-0.89063 1.40625,-1.42188 0.875,-0.54687 2.14063,-0.78125 0.79687,-0.15625 3.01566,-0.25 2.21875,-0.0937 3.17187,-0.46875 0.28125,-0.95312 0.28125,-1.59375 0,-0.82812 -0.59375,-1.29687 -0.82812,-0.64063 -2.40625,-0.64063 -1.48437,0 -2.42191,0.65625 -0.9375,0.65625 -1.375,1.85938 l -2.375,-0.20313 q 0.71875,-2.0625 2.29688,-3.15625 1.59375,-1.09375 4.00003,-1.09375 2.5625,0 4.0625,1.23438 1.14063,0.90625 1.14063,2.35937 0,1.10938 -0.32813,2.5625 l -0.76562,3.4375 q -0.35938,1.64063 -0.35938,2.67188 0,0.65625 0.28125,1.875 h -2.375 q -0.20312,-0.67188 -0.28125,-1.71875 z m 0.875,-5.28125 q -0.5,0.1875 -1.0625,0.29687 -0.5625,0.10938 -1.89062,0.21875 -2.06254,0.1875 -2.90629,0.46875 -0.84375,0.28125 -1.28125,0.89063 -0.42187,0.60937 -0.42187,1.34375 0,1 0.67187,1.64062 0.6875,0.625 1.95313,0.625 1.17191,0 2.25003,-0.60937 1.07813,-0.625 1.70313,-1.71875 0.625,-1.10938 0.98437,-3.15625 z m 4.44989,7 3.98438,-19.07813 h 2.35937 l -3.98437,19.07813 z"
       id="path31"
       inkscape:connector-curvature="0"
       style="fill:#000000;fill-rule:nonzero" />
    <path
       d="m 415.05402,493.84146 3.98437,-19.07813 h 13.78125 l -0.45312,2.17188 h -11.23438 l -1.23437,5.9375 h 10.92187 l -0.45312,2.17187 h -10.9375 l -1.375,6.64063 h 12.01562 l -0.45312,2.15625 z m 17.46701,0 2.89062,-13.82813 h 2.125 l -0.5,2.40625 q 1.39063,-1.40625 2.59375,-2.0625 1.21875,-0.65625 2.48438,-0.65625 1.67187,0 2.625,0.92188 0.95312,0.90625 0.95312,2.42187 0,0.78125 -0.32812,2.42188 l -1.76563,8.375 h -2.34375 l 1.82813,-8.76563 q 0.28125,-1.26562 0.28125,-1.875 0,-0.70312 -0.48438,-1.125 -0.46875,-0.4375 -1.375,-0.4375 -1.8125,0 -3.21875,1.3125 -1.40625,1.29688 -2.07812,4.45313 l -1.34375,6.4375 z m 18.30933,0 -2.26563,-13.82813 h 2.29688 l 1.17187,7.625 q 0.20313,1.25 0.48438,4.0625 0.67187,-1.46875 1.73437,-3.35937 l 4.625,-8.32813 h 2.48438 l -7.92188,13.82813 z m 13.1875,-16.40625 0.5625,-2.67188 h 2.32812 l -0.54687,2.67188 z m -3.4375,16.40625 2.89062,-13.82813 h 2.35938 l -2.89063,13.82813 z m 6.0159,0 2.89062,-13.82813 h 2.07813 l -0.59375,2.82813 q 1.07812,-1.59375 2.09375,-2.35938 1.01562,-0.78125 2.09375,-0.78125 0.70312,0 1.73437,0.51563 l -0.96875,2.1875 q -0.60937,-0.45313 -1.34375,-0.45313 -1.23437,0 -2.54687,1.39063 -1.29688,1.375 -2.03125,4.95312 l -1.17188,5.54688 z m 9.28299,-5.25 q 0,-4.04688 2.39062,-6.70313 1.96875,-2.1875 5.15625,-2.1875 2.5,0 4.01563,1.5625 1.53125,1.5625 1.53125,4.21875 0,2.39063 -0.96875,4.4375 -0.95313,2.04688 -2.73438,3.14063 -1.76562,1.09375 -3.73437,1.09375 -1.60938,0 -2.9375,-0.6875 -1.32813,-0.6875 -2.03125,-1.95313 -0.6875,-1.26562 -0.6875,-2.92187 z m 2.35937,-0.23438 q 0,1.95313 0.9375,2.96875 0.9375,1 2.375,1 0.76563,0 1.5,-0.29687 0.75,-0.3125 1.375,-0.9375 0.64063,-0.625 1.09375,-1.42188 0.45313,-0.79687 0.71875,-1.71875 0.40625,-1.29687 0.40625,-2.48437 0,-1.875 -0.95312,-2.90625 -0.9375,-1.03125 -2.35938,-1.03125 -1.10937,0 -2.03125,0.53125 -0.90625,0.51562 -1.64062,1.53125 -0.73438,1.01562 -1.07813,2.375 -0.34375,1.34375 -0.34375,2.39062 z m 12.05933,5.48438 2.89062,-13.82813 h 2.125 l -0.5,2.40625 q 1.39063,-1.40625 2.59375,-2.0625 1.21875,-0.65625 2.48438,-0.65625 1.67187,0 2.625,0.92188 0.95312,0.90625 0.95312,2.42187 0,0.78125 -0.32812,2.42188 l -1.76563,8.375 h -2.34375 l 1.82813,-8.76563 q 0.28125,-1.26562 0.28125,-1.875 0,-0.70312 -0.48438,-1.125 -0.46875,-0.4375 -1.375,-0.4375 -1.8125,0 -3.21875,1.3125 -1.40625,1.29688 -2.07812,4.45313 l -1.34375,6.4375 z m 14.80929,0 2.89063,-13.82813 h 2.35937 l -0.48437,2.28125 q 1.3125,-1.46875 2.34375,-2.03125 1.03125,-0.5625 2.25,-0.5625 1.28125,0 2.14062,0.6875 0.875,0.6875 1.14063,1.90625 1.0625,-1.29687 2.21875,-1.9375 1.17187,-0.65625 2.46875,-0.65625 1.71875,0 2.57812,0.82813 0.875,0.8125 0.875,2.29687 0,0.64063 -0.29687,2.10938 l -1.85938,8.90625 h -2.35937 l 1.90625,-9.14063 q 0.25,-1.10937 0.25,-1.59375 0,-0.6875 -0.4375,-1.07812 -0.42188,-0.39063 -1.20313,-0.39063 -1.0625,0 -2.15625,0.64063 -1.09375,0.64062 -1.70312,1.6875 -0.59375,1.03125 -1.04688,3.17187 l -1.40625,6.70313 h -2.35937 l 1.95312,-9.32813 q 0.20313,-0.95312 0.20313,-1.35937 0,-0.67188 -0.42188,-1.09375 -0.42187,-0.42188 -1.09375,-0.42188 -1.01562,0 -2.10937,0.64063 -1.09375,0.64062 -1.79688,1.78125 -0.6875,1.14062 -1.125,3.25 l -1.35937,6.53125 z m 32.36109,-4.70313 2.29687,0.23438 q -0.5,1.70312 -2.28125,3.25 -1.76562,1.53125 -4.23437,1.53125 -1.53125,0 -2.8125,-0.70313 -1.28125,-0.71875 -1.95313,-2.0625 -0.67187,-1.35937 -0.67187,-3.09375 0,-2.26562 1.04687,-4.39062 1.04688,-2.125 2.71875,-3.15625 1.67188,-1.04688 3.60938,-1.04688 2.46875,0 3.9375,1.54688 1.48437,1.53125 1.48437,4.1875 0,1.01562 -0.1875,2.07812 h -10.17187 q -0.0469,0.40625 -0.0469,0.73438 0,1.9375 0.89063,2.96875 0.89062,1.01562 2.17187,1.01562 1.21875,0 2.39063,-0.79687 1.17187,-0.79688 1.8125,-2.29688 z m -6.84375,-3.42187 h 7.76562 q 0.0156,-0.35938 0.0156,-0.51563 0,-1.76562 -0.89063,-2.70312 -0.89062,-0.95313 -2.28125,-0.95313 -1.51562,0 -2.76562,1.04688 -1.23438,1.03125 -1.84375,3.125 z m 11.52807,8.125 2.89063,-13.82813 h 2.125 l -0.5,2.40625 q 1.39062,-1.40625 2.59375,-2.0625 1.21875,-0.65625 2.48437,-0.65625 1.67188,0 2.625,0.92188 0.95313,0.90625 0.95313,2.42187 0,0.78125 -0.32813,2.42188 l -1.76562,8.375 h -2.34375 l 1.82812,-8.76563 q 0.28125,-1.26562 0.28125,-1.875 0,-0.70312 -0.48437,-1.125 -0.46875,-0.4375 -1.375,-0.4375 -1.8125,0 -3.21875,1.3125 -1.40625,1.29688 -2.07813,4.45313 l -1.34375,6.4375 z m 20.32495,-1.90625 -0.39062,1.92187 q -0.84375,0.21875 -1.64063,0.21875 -1.40625,0 -2.23437,-0.6875 -0.625,-0.51562 -0.625,-1.42187 0,-0.45313 0.32812,-2.09375 l 1.6875,-8.03125 h -1.85937 l 0.375,-1.82813 h 1.85937 l 0.71875,-3.39062 2.6875,-1.625 -1.04687,5.01562 h 2.3125 l -0.39063,1.82813 h -2.29687 l -1.60938,7.64062 q -0.29687,1.45313 -0.29687,1.75 0,0.40625 0.23437,0.64063 0.25,0.21875 0.79688,0.21875 0.78125,0 1.39062,-0.15625 z"
       id="path33"
       inkscape:connector-curvature="0"
       style="fill:#000000;fill-rule:nonzero" />
    <path
       d="m 730.1575,393.19727 v 0 c 0,-11.88666 9.63605,-21.52274 21.52277,-21.52274 h 196.2616 c 5.70819,0 11.18255,2.26758 15.21887,6.30387 4.03631,4.03631 6.30383,9.51071 6.30383,15.21887 v 86.08838 c 0,11.88669 -9.63605,21.52277 -21.5227,21.52277 h -196.2616 c -11.88672,0 -21.52277,-9.63608 -21.52277,-21.52277 z"
       id="path35"
       inkscape:connector-curvature="0"
       style="fill:#d0e0e3;fill-rule:evenodd" />
    <path
       d="m 730.1575,393.19727 v 0 c 0,-11.88666 9.63605,-21.52274 21.52277,-21.52274 h 196.2616 c 5.70819,0 11.18255,2.26758 15.21887,6.30387 4.03631,4.03631 6.30383,9.51071 6.30383,15.21887 v 86.08838 c 0,11.88669 -9.63605,21.52277 -21.5227,21.52277 h -196.2616 c -11.88672,0 -21.52277,-9.63608 -21.52277,-21.52277 z"
       id="path37"
       inkscape:connector-curvature="0"
       style="fill-rule:evenodd;stroke:#000000;stroke-width:3;stroke-linecap:butt;stroke-linejoin:round" />
    <path
       d="m 799.77527,384.01334 h 3.40625 v 2.03125 q 0.67187,-1.03125 1.79687,-1.6875 1.125,-0.65625 2.51563,-0.65625 2.40625,0 4.07812,1.89063 1.6875,1.89062 1.6875,5.26562 0,3.45313 -1.70312,5.375 -1.6875,1.92188 -4.09375,1.92188 -1.14063,0 -2.07813,-0.45313 -0.92187,-0.45312 -1.95312,-1.5625 v 6.96875 h -3.65625 z m 3.60937,6.6875 q 0,2.32813 0.92188,3.4375 0.9375,1.10938 2.26562,1.10938 1.26563,0 2.10938,-1.01563 0.85937,-1.03125 0.85937,-3.35937 0,-2.17188 -0.875,-3.21875 -0.875,-1.0625 -2.17187,-1.0625 -1.32813,0 -2.21875,1.04687 -0.89063,1.03125 -0.89063,3.0625 z m 16.28272,7.14063 h -3.67187 v -13.82813 h 3.40625 v 1.96875 q 0.875,-1.39062 1.5625,-1.82812 0.70312,-0.45313 1.57812,-0.45313 1.25,0 2.42188,0.70313 l -1.14063,3.1875 q -0.92187,-0.60938 -1.71875,-0.60938 -0.76562,0 -1.29687,0.42188 -0.53125,0.42187 -0.84375,1.53125 -0.29688,1.10937 -0.29688,4.64062 z m 6.01416,-7.10938 q 0,-1.8125 0.89062,-3.51562 0.90625,-1.71875 2.54688,-2.60938 1.65625,-0.90625 3.6875,-0.90625 3.14062,0 5.14062,2.04688 2,2.03125 2,5.14062 0,3.14063 -2.03125,5.20313 -2.01562,2.0625 -5.07812,2.0625 -1.90625,0 -3.64063,-0.85938 -1.71875,-0.85937 -2.625,-2.51562 -0.89062,-1.65625 -0.89062,-4.04688 z m 3.75,0.20313 q 0,2.04687 0.96875,3.14062 0.98437,1.09375 2.42187,1.09375 1.42188,0 2.39063,-1.09375 0.98437,-1.09375 0.98437,-3.17187 0,-2.03125 -0.98437,-3.125 -0.96875,-1.09375 -2.39063,-1.09375 -1.4375,0 -2.42187,1.09375 -0.96875,1.09375 -0.96875,3.15625 z m 13.29834,-8.79688 v -3.375 h 3.67188 v 3.375 z m 3.67188,1.875 v 13.40625 q 0,2.64063 -0.35938,3.71875 -0.34375,1.09375 -1.32812,1.70313 -0.96875,0.60937 -2.5,0.60937 -0.54688,0 -1.1875,-0.0937 -0.625,-0.0937 -1.34375,-0.29687 l 0.64062,-3.125 q 0.25,0.0469 0.48438,0.0781 0.21875,0.0469 0.42187,0.0469 0.5625,0 0.90625,-0.25 0.35938,-0.23438 0.46875,-0.57813 0.125,-0.34375 0.125,-2.03125 v -13.1875 z m 11.82781,9.42188 3.64063,0.625 q -0.70313,2 -2.21875,3.04687 -1.51563,1.04688 -3.79688,1.04688 -3.60937,0 -5.32812,-2.35938 -1.375,-1.89062 -1.375,-4.76562 0,-3.4375 1.79687,-5.375 1.79688,-1.95313 4.54688,-1.95313 3.07812,0 4.85937,2.04688 1.78125,2.03125 1.70313,6.23437 h -9.15625 q 0.0469,1.625 0.89062,2.53125 0.84375,0.90625 2.10938,0.90625 0.85937,0 1.4375,-0.46875 0.59375,-0.46875 0.89062,-1.51562 z m 0.20313,-3.6875 q -0.0312,-1.59375 -0.8125,-2.42188 -0.78125,-0.82812 -1.90625,-0.82812 -1.20313,0 -1.98438,0.875 -0.78125,0.875 -0.76562,2.375 z m 18.6687,-1.64063 -3.60937,0.65625 q -0.1875,-1.09375 -0.82813,-1.64062 -0.64062,-0.54688 -1.67187,-0.54688 -1.35938,0 -2.17188,0.95313 -0.8125,0.9375 -0.8125,3.15625 0,2.45312 0.8125,3.46875 0.82813,1.01562 2.21875,1.01562 1.04688,0 1.70313,-0.59375 0.67187,-0.59375 0.95312,-2.03125 l 3.57813,0.60938 q -0.54688,2.46875 -2.14063,3.73437 -1.59375,1.26563 -4.25,1.26563 -3.03125,0 -4.84375,-1.90625 -1.79687,-1.92188 -1.79687,-5.29688 0,-3.4375 1.79687,-5.34375 1.8125,-1.90625 4.90625,-1.90625 2.51563,0 4,1.09375 1.5,1.07813 2.15625,3.3125 z m 9.1062,-4.09375 v 2.92188 h -2.5 v 5.5625 q 0,1.70312 0.0625,1.98437 0.0781,0.28125 0.32813,0.46875 0.26562,0.17188 0.625,0.17188 0.51562,0 1.46875,-0.35938 l 0.3125,2.84375 q -1.26563,0.54688 -2.89063,0.54688 -0.98437,0 -1.78125,-0.32813 -0.79687,-0.32812 -1.17187,-0.85937 -0.35938,-0.53125 -0.5,-1.42188 -0.125,-0.64062 -0.125,-2.57812 v -6.03125 h -1.67188 v -2.92188 h 1.67188 v -2.73437 l 3.67187,-2.14063 v 4.875 z m 1.62677,8.76563 3.54688,-0.4375 q 0.17187,1.35937 0.90625,2.07812 0.75,0.71875 1.79687,0.71875 1.125,0 1.90625,-0.85937 0.78125,-0.85938 0.78125,-2.32813 0,-1.375 -0.75,-2.17187 -0.73437,-0.8125 -1.8125,-0.8125 -0.70312,0 -1.67187,0.26562 l 0.40625,-2.96875 q 1.48437,0.0312 2.26562,-0.64062 0.78125,-0.6875 0.78125,-1.82813 0,-0.95312 -0.57812,-1.53125 -0.57813,-0.57812 -1.53125,-0.57812 -0.92188,0 -1.59375,0.65625 -0.65625,0.65625 -0.8125,1.90625 l -3.35938,-0.57813 q 0.34375,-1.73437 1.04688,-2.76562 0.71875,-1.03125 1.98437,-1.625 1.26563,-0.59375 2.84375,-0.59375 2.70313,0 4.32813,1.71875 1.34375,1.40625 1.34375,3.17187 0,2.51563 -2.75,4.01563 1.64062,0.34375 2.60937,1.57812 0.98438,1.21875 0.98438,2.9375 0,2.51563 -1.82813,4.29688 -1.82812,1.76562 -4.5625,1.76562 -2.59375,0 -4.29687,-1.48437 -1.70313,-1.5 -1.98438,-3.90625 z"
       id="path39"
       inkscape:connector-curvature="0"
       style="fill:#000000;fill-rule:nonzero" />
    <path
       d="m 819.24243,461.84146 -3.65625,-19.07813 h 2.45313 l 2.21875,11.375 q 0.60937,3.09375 0.78125,5 1.20312,-2.45312 1.96875,-3.89062 l 6.8125,-12.48438 h 2.625 l -10.46875,19.07813 z m 14.56342,-16.40625 0.5625,-2.67188 h 2.32812 l -0.54687,2.67188 z m -3.4375,16.40625 2.89062,-13.82813 h 2.35938 l -2.89063,13.82813 z m 6.01586,0 2.89063,-13.82813 h 2.07812 l -0.59375,2.82813 q 1.07813,-1.59375 2.09375,-2.35938 1.01563,-0.78125 2.09375,-0.78125 0.70313,0 1.73438,0.51563 l -0.96875,2.1875 q -0.60938,-0.45313 -1.34375,-0.45313 -1.23438,0 -2.54688,1.39063 -1.29687,1.375 -2.03125,4.95312 l -1.17187,5.54688 z m 14.37677,-1.90625 -0.39062,1.92187 q -0.84375,0.21875 -1.64063,0.21875 -1.40625,0 -2.23437,-0.6875 -0.625,-0.51562 -0.625,-1.42187 0,-0.45313 0.32812,-2.09375 l 1.6875,-8.03125 h -1.85937 l 0.375,-1.82813 h 1.85937 l 0.71875,-3.39062 2.6875,-1.625 -1.04687,5.01562 h 2.3125 l -0.39063,1.82813 h -2.29687 l -1.60938,7.64062 q -0.29687,1.45313 -0.29687,1.75 0,0.40625 0.23437,0.64063 0.25,0.21875 0.79688,0.21875 0.78125,0 1.39062,-0.15625 z m 11.34345,-0.59375 q -2.5,2.8125 -5.09375,2.8125 -1.60938,0 -2.59375,-0.90625 -0.96875,-0.92188 -0.96875,-2.25 0,-0.875 0.4375,-3 l 1.67187,-7.98438 h 2.34375 l -1.84375,8.84375 q -0.23437,1.10938 -0.23437,1.71875 0,0.78125 0.46875,1.21875 0.48437,0.4375 1.40625,0.4375 0.98437,0 1.92187,-0.48437 0.95313,-0.48438 1.64063,-1.29688 0.6875,-0.82812 1.10937,-1.95312 0.28125,-0.70313 0.67188,-2.5 l 1.25,-5.98438 h 2.34375 l -2.89063,13.82813 h -2.17187 z m 14.69995,0.78125 q -1.21875,1.0625 -2.35937,1.54687 -1.125,0.48438 -2.42188,0.48438 -1.90625,0 -3.07812,-1.125 -1.17188,-1.125 -1.17188,-2.89063 0,-1.15625 0.51563,-2.04687 0.53125,-0.89063 1.40625,-1.42188 0.875,-0.54687 2.14062,-0.78125 0.79688,-0.15625 3.01563,-0.25 2.21875,-0.0937 3.17187,-0.46875 0.28125,-0.95312 0.28125,-1.59375 0,-0.82812 -0.59375,-1.29687 -0.82812,-0.64063 -2.40625,-0.64063 -1.48437,0 -2.42187,0.65625 -0.9375,0.65625 -1.375,1.85938 l -2.375,-0.20313 q 0.71875,-2.0625 2.29687,-3.15625 1.59375,-1.09375 4,-1.09375 2.5625,0 4.0625,1.23438 1.14063,0.90625 1.14063,2.35937 0,1.10938 -0.32813,2.5625 l -0.76562,3.4375 q -0.35938,1.64063 -0.35938,2.67188 0,0.65625 0.28125,1.875 h -2.375 q -0.20312,-0.67188 -0.28125,-1.71875 z m 0.875,-5.28125 q -0.5,0.1875 -1.0625,0.29687 -0.5625,0.10938 -1.89062,0.21875 -2.0625,0.1875 -2.90625,0.46875 -0.84375,0.28125 -1.28125,0.89063 -0.42188,0.60937 -0.42188,1.34375 0,1 0.67188,1.64062 0.6875,0.625 1.95312,0.625 1.17188,0 2.25,-0.60937 1.07813,-0.625 1.70313,-1.71875 0.625,-1.10938 0.98437,-3.15625 z m 4.44995,7 3.98438,-19.07813 h 2.35937 l -3.98437,19.07813 z"
       id="path41"
       inkscape:connector-curvature="0"
       style="fill:#000000;fill-rule:nonzero" />
    <path
       d="m 776.1931,493.84146 3.98437,-19.07813 h 13.78125 l -0.45312,2.17188 h -11.23438 l -1.23437,5.9375 h 10.92187 l -0.45312,2.17187 h -10.9375 l -1.375,6.64063 h 12.01562 l -0.45312,2.15625 z m 17.46704,0 2.89063,-13.82813 h 2.125 l -0.5,2.40625 q 1.39062,-1.40625 2.59375,-2.0625 1.21875,-0.65625 2.48437,-0.65625 1.67188,0 2.625,0.92188 0.95313,0.90625 0.95313,2.42187 0,0.78125 -0.32813,2.42188 l -1.76562,8.375 h -2.34375 l 1.82812,-8.76563 q 0.28125,-1.26562 0.28125,-1.875 0,-0.70312 -0.48437,-1.125 -0.46875,-0.4375 -1.375,-0.4375 -1.8125,0 -3.21875,1.3125 -1.40625,1.29688 -2.07813,4.45313 l -1.34375,6.4375 z m 18.30927,0 -2.26563,-13.82813 h 2.29688 l 1.17187,7.625 q 0.20313,1.25 0.48438,4.0625 0.67187,-1.46875 1.73437,-3.35937 l 4.625,-8.32813 h 2.48438 l -7.92188,13.82813 z m 13.1875,-16.40625 0.5625,-2.67188 h 2.32812 l -0.54687,2.67188 z m -3.4375,16.40625 2.89062,-13.82813 h 2.35938 l -2.89063,13.82813 z m 6.01593,0 2.89062,-13.82813 h 2.07813 l -0.59375,2.82813 q 1.07812,-1.59375 2.09375,-2.35938 1.01562,-0.78125 2.09375,-0.78125 0.70312,0 1.73437,0.51563 l -0.96875,2.1875 q -0.60937,-0.45313 -1.34375,-0.45313 -1.23437,0 -2.54687,1.39063 -1.29688,1.375 -2.03125,4.95312 l -1.17188,5.54688 z m 9.28302,-5.25 q 0,-4.04688 2.39062,-6.70313 1.96875,-2.1875 5.15625,-2.1875 2.5,0 4.01563,1.5625 1.53125,1.5625 1.53125,4.21875 0,2.39063 -0.96875,4.4375 -0.95313,2.04688 -2.73438,3.14063 -1.76562,1.09375 -3.73437,1.09375 -1.60938,0 -2.9375,-0.6875 -1.32813,-0.6875 -2.03125,-1.95313 -0.6875,-1.26562 -0.6875,-2.92187 z m 2.35937,-0.23438 q 0,1.95313 0.9375,2.96875 0.9375,1 2.375,1 0.76563,0 1.5,-0.29687 0.75,-0.3125 1.375,-0.9375 0.64063,-0.625 1.09375,-1.42188 0.45313,-0.79687 0.71875,-1.71875 0.40625,-1.29687 0.40625,-2.48437 0,-1.875 -0.95312,-2.90625 -0.9375,-1.03125 -2.35938,-1.03125 -1.10937,0 -2.03125,0.53125 -0.90625,0.51562 -1.64062,1.53125 -0.73438,1.01562 -1.07813,2.375 -0.34375,1.34375 -0.34375,2.39062 z m 12.05927,5.48438 2.89062,-13.82813 h 2.125 l -0.5,2.40625 q 1.39063,-1.40625 2.59375,-2.0625 1.21875,-0.65625 2.48438,-0.65625 1.67187,0 2.625,0.92188 0.95318,0.90625 0.95318,2.42187 0,0.78125 -0.32818,2.42188 l -1.76563,8.375 h -2.34375 l 1.82813,-8.76563 q 0.28125,-1.26562 0.28125,-1.875 0,-0.70312 -0.48438,-1.125 -0.46875,-0.4375 -1.375,-0.4375 -1.8125,0 -3.21875,1.3125 -1.40625,1.29688 -2.07812,4.45313 l -1.34375,6.4375 z m 14.80932,0 2.89063,-13.82813 h 2.35937 l -0.48437,2.28125 q 1.3125,-1.46875 2.34375,-2.03125 1.03125,-0.5625 2.25,-0.5625 1.28125,0 2.14062,0.6875 0.875,0.6875 1.14063,1.90625 1.0625,-1.29687 2.21875,-1.9375 1.17187,-0.65625 2.46875,-0.65625 1.71875,0 2.57812,0.82813 0.875,0.8125 0.875,2.29687 0,0.64063 -0.29687,2.10938 l -1.85938,8.90625 h -2.35937 l 1.90625,-9.14063 q 0.25,-1.10937 0.25,-1.59375 0,-0.6875 -0.4375,-1.07812 -0.42188,-0.39063 -1.20313,-0.39063 -1.0625,0 -2.15625,0.64063 -1.09375,0.64062 -1.70312,1.6875 -0.59375,1.03125 -1.04688,3.17187 l -1.40625,6.70313 h -2.35937 l 1.95312,-9.32813 q 0.20313,-0.95312 0.20313,-1.35937 0,-0.67188 -0.42188,-1.09375 -0.42187,-0.42188 -1.09375,-0.42188 -1.01562,0 -2.10937,0.64063 -1.09375,0.64062 -1.79688,1.78125 -0.6875,1.14062 -1.125,3.25 l -1.35937,6.53125 z m 32.36115,-4.70313 2.29687,0.23438 q -0.5,1.70312 -2.28125,3.25 -1.76562,1.53125 -4.23437,1.53125 -1.53125,0 -2.8125,-0.70313 -1.28125,-0.71875 -1.95313,-2.0625 -0.67187,-1.35937 -0.67187,-3.09375 0,-2.26562 1.04687,-4.39062 1.04688,-2.125 2.71875,-3.15625 1.67188,-1.04688 3.60938,-1.04688 2.46875,0 3.9375,1.54688 1.48437,1.53125 1.48437,4.1875 0,1.01562 -0.1875,2.07812 h -10.17187 q -0.0469,0.40625 -0.0469,0.73438 0,1.9375 0.89063,2.96875 0.89062,1.01562 2.17187,1.01562 1.21875,0 2.39063,-0.79687 1.17187,-0.79688 1.8125,-2.29688 z m -6.84375,-3.42187 h 7.76562 q 0.0156,-0.35938 0.0156,-0.51563 0,-1.76562 -0.89063,-2.70312 -0.89062,-0.95313 -2.28125,-0.95313 -1.51562,0 -2.76562,1.04688 -1.23438,1.03125 -1.84375,3.125 z m 11.52807,8.125 2.89063,-13.82813 h 2.125 l -0.5,2.40625 q 1.39062,-1.40625 2.59375,-2.0625 1.21875,-0.65625 2.48437,-0.65625 1.67188,0 2.625,0.92188 0.95313,0.90625 0.95313,2.42187 0,0.78125 -0.32813,2.42188 l -1.76562,8.375 h -2.34375 l 1.82812,-8.76563 q 0.28125,-1.26562 0.28125,-1.875 0,-0.70312 -0.48437,-1.125 -0.46875,-0.4375 -1.375,-0.4375 -1.8125,0 -3.21875,1.3125 -1.40625,1.29688 -2.07813,4.45313 l -1.34375,6.4375 z m 20.32489,-1.90625 -0.39062,1.92187 q -0.84375,0.21875 -1.64063,0.21875 -1.40625,0 -2.23437,-0.6875 -0.625,-0.51562 -0.625,-1.42187 0,-0.45313 0.32812,-2.09375 l 1.6875,-8.03125 h -1.85937 l 0.375,-1.82813 h 1.85937 l 0.71875,-3.39062 2.6875,-1.625 -1.04687,5.01562 h 2.3125 l -0.39063,1.82813 h -2.29687 l -1.60938,7.64062 q -0.29687,1.45313 -0.29687,1.75 0,0.40625 0.23437,0.64063 0.25,0.21875 0.79688,0.21875 0.78125,0 1.39062,-0.15625 z"
       id="path43"
       inkscape:connector-curvature="0"
       style="fill:#000000;fill-rule:nonzero" />
    <path
       d="M 488.6719,136.94489 136.35696,371.68503"
       id="path45"
       inkscape:connector-curvature="0"
       style="fill:#000000;fill-opacity:0;fill-rule:evenodd" />
    <path
       d="M 488.6719,136.94489 136.35696,371.68503"
       id="path47"
       inkscape:connector-curvature="0"
       style="fill-rule:evenodd;stroke:#000000;stroke-width:3;stroke-linecap:butt;stroke-linejoin:round" />
    <path
       d="M 488.6719,371.67453 V 136.93439"
       id="path49"
       inkscape:connector-curvature="0"
       style="fill:#000000;fill-opacity:0;fill-rule:evenodd" />
    <path
       d="M 488.6719,371.67453 V 136.93439"
       id="path51"
       inkscape:connector-curvature="0"
       style="fill-rule:evenodd;stroke:#000000;stroke-width:3;stroke-linecap:butt;stroke-linejoin:round" />
    <path
       d="M 849.81104,371.67453 488.67716,136.93439"
       id="path53"
       inkscape:connector-curvature="0"
       style="fill:#000000;fill-opacity:0;fill-rule:evenodd" />
    <path
       d="M 849.81104,371.67453 488.67716,136.93439"
       id="path55"
       inkscape:connector-curvature="0"
       style="fill-rule:evenodd;stroke:#000000;stroke-width:3;stroke-linecap:butt;stroke-linejoin:round" />
  </g>
</svg>
